<?xml version="1.0" encoding="utf-8"?>
<!-- Generator: Adobe Illustrator 20.0.0, SVG Export Plug-In . SVG Version: 6.00 Build 0)  -->
<svg version="1.1" xmlns="http://www.w3.org/2000/svg" xmlns:xlink="http://www.w3.org/1999/xlink" x="0px" y="0px"
	 viewBox="0 0 500 500" style="enable-background:new 0 0 500 500;" xml:space="preserve">
<style type="text/css">
	.st0{fill:#F7C31E;}
	.st1{fill:#DB9B1E;}
	.st2{fill:#FFFFFF;}
	.st3{fill:none;stroke:#FFFFFF;stroke-width:7;}
	.st4{fill:#FFACE4;}
	.st5{display:none;}
	.st6{display:inline;}
	.st7{display:inline;fill:#FFFFFF;}
	.st8{fill:#DB88C8;}
	.st9{display:inline;fill:#DB88C8;}
	.st10{fill:#32C8FC;}
	.st11{stroke:#000000;stroke-width:4;}
	.st12{fill:#3CA3D6;}
</style>
<g id="GAME">
	<g id="レイヤー_2">
	</g>
	<g id="レイヤー_4">
	</g>
	<g id="レイヤー_3">
	</g>
	<g id="レイヤー_1">
	</g>
</g>
<g id="illust">
	<g id="レイヤー_7">
		<rect x="0.8" y="-5.2" class="st4" width="498.4" height="506.2"/>
	</g>
	<g class="st5">
		<path class="st6" d="M233.4,345.6c-3.1,0-6.3,0.1-9.4,0c-6.3-0.3-12.7-0.5-18.9-1.1c-10.7-1.1-21.4-2.7-31.8-5.7
			c-6.7-2-13.3-4.5-19.9-7.1c-7.6-3-14.6-7.3-20.8-12.4c-4.8-3.9-9-8.5-13.2-13.1c-4.4-4.7-7.5-10.4-10.3-16.3
			c-2.8-6.1-4.7-12.5-5.9-19.2c-1.1-6.4-1.5-12.9-1.4-19.4c0.2-7.6,1.2-15.2,2.9-22.6c2.4-10.6,6-20.7,10.6-30.6
			c5.3-11.4,12-22.1,19.4-32.3c7.2-9.8,15.3-18.7,24.2-26.9c6-5.5,12.5-10.6,19.1-15.5c10.3-7.7,21.5-13.9,33.2-19.2
			c7.9-3.6,16.1-6.8,24.2-9.9c9.4-3.5,19.2-5.9,29.1-7.8c4.3-0.8,8.7-1.4,13.1-1.8c4.6-0.5,9.3-0.8,14-1.1c4.1-0.2,8.1-0.5,12.2-0.3
			c5.3,0.2,10.6,0.6,15.9,1.4c6.5,0.9,13.1,1.9,19.4,3.6c6.4,1.7,12.7,4.2,18.9,6.6c6.8,2.7,13,6.5,18.9,11
			c6.8,5.1,12.4,11.3,16.3,18.9c2.6,5,3.9,10.5,4.4,16.1c0.3,3.7,0.6,7.4,0.3,11.1c-0.4,5.9-1.7,11.7-4.4,17
			c-4.3,8.6-9,17-13.6,25.4c-3.9,7.3-2.9,13.9,2.1,20.3c6.3,7.9,10.1,17,12.4,26.9c1.6,6.8,2,13.7,1.7,20.6
			c-0.4,6.9-1.9,13.5-4.5,19.9c-3.3,8-7.8,15.1-13.7,21.5c-6.8,7.4-14.8,13.2-23.5,18.2c-9.4,5.4-19.4,9.4-29.8,12.3
			c-7.7,2.2-15.4,4-23.2,5.6c-5.7,1.2-11.4,2-17.1,2.8c-3.7,0.5-7.5,0.8-11.3,1.1c-5.4,0.4-10.9,0.7-16.3,1.1
			c-1.8,0.1-3.5,0.3-5.3,0.3c-6.1,0-12.1,0-18.2,0C233.4,345.3,233.4,345.5,233.4,345.6z M305.4,239c0,0.2,0.1,0.3,0.1,0.5
			c4.5-0.8,9-1.3,13.3-2.6c10.8-3.2,19.8-9.2,25.8-19c3.5-5.7,5.1-12,3.6-18.7c-2-9-7.9-14.6-16.4-17.6c-11.8-4.1-23.2-2.3-34.2,3.1
			c-8.7,4.2-15.7,10.4-19.6,19.4c-5.5,12.5-0.9,25.3,11.2,31.3C294.4,238,299.8,239,305.4,239z M133.7,227.9
			c0,12.3,9.7,22.1,22,22.2c12.1,0.1,22.1-9.9,22.1-22.1c0-12.2-9.8-22-21.9-22C143.5,205.9,133.7,215.6,133.7,227.9z M192.5,287.8
			c0.8-12-8.7-22.2-21.4-22.9c-11.6-0.7-22,8.9-22.7,20.9c-0.7,12,8.7,22.5,20.8,23.2C181.4,309.7,191.7,300.4,192.5,287.8z
			 M275.4,135.8c0-12.3-9.7-22.1-22-22.2c-12.1-0.1-22.1,9.9-22.1,22.1c0,12.2,9.8,22,21.9,22C265.6,157.7,275.4,148,275.4,135.8z
			 M320.9,154c12.3,0,22.1-9.7,22.1-22c0-12.2-10-22.1-22.1-22c-12.1,0.1-22,9.9-22,22C298.8,144.2,308.6,154,320.9,154z
			 M312.2,266.7c-12.2,0-21.9,9.7-22,21.9c-0.1,12.2,9.8,22.1,22,22.2c12.2,0,22-9.8,22-22.1C334.3,276.4,324.6,266.7,312.2,266.7z
			 M196.5,194.1c12.3,0,22.1-9.6,22.2-21.9c0.1-12.1-9.7-22.1-21.8-22.1c-12.2,0-22.2,9.7-22.2,21.7
			C174.6,184.3,184.2,194.1,196.5,194.1z M262.7,299c0-12.4-9.8-22-22.5-21.9c-11.9,0-21.6,10-21.6,22.2c0,12.1,9.9,21.9,22.1,21.9
			C252.9,321.1,262.7,311.3,262.7,299z"/>
		<path class="st7" d="M305.4,239c-5.6,0-11.1-1-16.1-3.5c-12.1-6-16.7-18.8-11.2-31.3c4-9,10.9-15.2,19.6-19.4
			c11-5.3,22.4-7.2,34.2-3.1c8.5,2.9,14.4,8.5,16.4,17.6c1.5,6.7-0.1,12.9-3.6,18.7c-6,9.8-15,15.8-25.8,19
			c-4.3,1.3-8.9,1.7-13.3,2.6C305.5,239.3,305.4,239.1,305.4,239z"/>
		<path class="st7" d="M133.7,227.9c0-12.3,9.8-21.9,22.1-21.9c12.1,0,21.9,9.9,21.9,22c0,12.2-10,22.2-22.1,22.1
			C143.4,250,133.7,240.2,133.7,227.9z"/>
		<path class="st7" d="M192.5,287.8c-0.8,12.6-11.1,21.9-23.3,21.2c-12.1-0.8-21.5-11.2-20.8-23.2c0.7-12,11.2-21.6,22.7-20.9
			C183.8,265.7,193.3,275.9,192.5,287.8z"/>
		<path class="st7" d="M275.4,135.8c0,12.3-9.8,21.9-22.1,21.9c-12.1,0-21.9-9.9-21.9-22c0-12.2,10-22.2,22.1-22.1
			C265.7,113.7,275.4,123.5,275.4,135.8z"/>
		<path class="st7" d="M320.9,154c-12.3,0-22.1-9.8-22.1-22c0-12.1,9.9-22,22-22c12.2-0.1,22.1,9.8,22.1,22
			C343,144.3,333.2,154,320.9,154z"/>
		<path class="st7" d="M312.2,266.7c12.4,0,22.1,9.7,22.1,22c0,12.2-9.9,22.1-22,22.1c-12.2,0-22.1-10-22-22.2
			C290.3,276.4,300,266.8,312.2,266.7z"/>
		<path class="st7" d="M196.5,194.1c-12.3,0-21.9-9.8-21.9-22.3c0-12,10-21.8,22.2-21.7c12.1,0,21.9,10,21.8,22.1
			C218.6,184.5,208.8,194.1,196.5,194.1z"/>
		<path class="st7" d="M262.7,299c0,12.3-9.8,22.1-22,22.1c-12.2,0-22-9.8-22.1-21.9c0-12.2,9.7-22.1,21.6-22.2
			C252.8,277.1,262.6,286.6,262.7,299z"/>
	</g>
	<g>
		<polygon class="st8" points="370.7,500 130.1,284.5 303.5,284.5 375.2,283 376.5,163.6 376.8,132.8 498.5,227.9 499.5,500 		"/>
		<path d="M361.7,76.6c-74.5,0-148.8,0-223.3,0c0,63.6,0,127.2,0,191c0.7,0,1.4,0,2.1,0c53.8,0,107.7,0,161.5,0c1.5,0,2.3,0.5,3,1.8
			c2.5,4.5,5.1,9,7.7,13.5c0.3,0.5,0.5,1,0.9,1.7c-0.7,0-1.2,0.1-1.8,0.1c-60.6,0-121.2,0-181.9,0c-5.1,0-8.6-3.4-8.8-8.5
			c0-0.5,0-0.9,0-1.4c0-68.5,0-136.9,0-205.4c0-2.1,0.2-4.2,1.4-6c1.6-2.4,3.8-3.6,6.6-3.9c0.5,0,1,0,1.5,0c79.5,0,158.9,0,238.4,0
			c3.6,0,6.7,1,8.3,4.3c0.8,1.6,1.2,3.6,1.2,5.4c0.1,17.6,0.1,35.1,0.1,52.7c0,51,0,101.9,0,152.9c0,3.3-0.8,6.3-3.6,8.3
			c-1.7,1.3-3.7,1.7-5.8,1.5c-0.4,0-1-0.5-1.2-0.9c-2.1-5.2-4.3-10.4-6.3-15.7c-0.3-0.8-0.2-1.7-0.2-2.5c0-62.1,0-124.2,0-186.3
			C361.7,78.3,361.7,77.5,361.7,76.6z"/>
		<path d="M192.3,106.2c-3.3,1.5-6.6,2.9-9.8,4.4c-6.7,3.2-13,7-18.6,11.9c-1.3,1.1-2.7,1.4-4.3,1c-5.8-1.7-10.1-5.4-12.8-10.8
			c-1.1-2.1-0.6-3.3,1.2-4.9c9.9-8.3,21.3-13.9,33.3-18.3c7.7-2.8,15.5-5.3,23.2-7.7c1.4-0.4,3.2-0.5,4.6,0
			c4.7,1.4,8.6,4.2,11.4,8.3c1.3,1.9,1.5,3.8,0.6,6c-6.5,14.8-14.5,28.8-22.8,42.6c-4,6.6-7.9,13.3-11.9,19.9
			c-0.3,0.4-0.5,0.9-0.9,1.6c0.5-0.2,0.7-0.3,0.9-0.4c15.9-10.2,32.7-18.6,49.4-27.4c12-6.3,23.7-13.1,34.5-21.3
			c1.4-1.1,3-1.3,4.6-0.8c5.5,1.7,9.6,5.4,12.3,10.4c1.3,2.3,0.9,3.3-1.3,5c-10,8.1-18.4,17.8-25.9,28.2c-7,9.6-13.6,19.5-20.4,29.3
			c-1.5,2.1-2.6,2.6-5,1.8c-5.3-1.8-9.3-5.2-12-10.1c-1.1-1.9-0.9-3.8,0.4-5.7c2.6-3.6,5-7.2,7.7-11.3c-1,0.5-1.5,0.7-2,1
			c-15,9-30,17.9-45,26.9c-5.4,3.2-10.9,6.4-16.3,9.7c-1.8,1.1-3.5,1.2-5.3,0.4c-4.6-1.9-8.2-4.9-10.8-9.1c-1.1-1.7-1.2-3.4-0.4-5.4
			C157.3,167,165,153.4,173,140c6.2-10.5,12.4-21.1,18.6-31.6c0.3-0.6,0.6-1.2,0.9-1.8C192.5,106.4,192.4,106.3,192.3,106.2z"/>
		<path d="M267,178.6c0.1-8.4,1.6-19,4.1-29.4c1-4,4.9-6.1,8.7-4.3c14.5,6.8,28,15,39,26.9c8.4,9.1,14.2,19.6,16.2,32
			c1.3,8.3,0.7,16.4-1.8,24.4c-0.4,1.2-0.4,2.3,0.1,3.6c14.2,35.3,28.3,70.6,42.5,105.8c1,2.4,1.3,4.9-0.7,6.8
			c-2.1,2.1-4.7,3.6-7.9,2.9c-1.8-0.4-3-1.6-3.9-3.2c-8.6-15.1-17.3-30.1-26-45.1c-10.5-18.2-20.9-36.4-31.4-54.5
			c-0.3-0.6-0.9-1.2-1.5-1.4c-16.7-6.3-27.5-18.1-33.3-34.8C268.1,199.6,267,191.5,267,178.6z M283.9,206.7
			c5.6,13.1,14.7,21.8,28.4,25.4c0.4,0.1,0.9,0.1,1.3-0.1c1.7-0.8,3.4-1.6,5-2.4c0.4-0.2,0.8-0.6,1-1.1c4.9-10.9,4.7-21.9,0.1-32.8
			c-1.4-3.3-3.4-6.4-5.1-9.6c-0.2,0.1-0.4,0.1-0.5,0.2c-0.5,2.2-0.9,4.4-1.5,6.5c-1.1,3.5-3.6,4.5-6.9,2.9c-1.5-0.7-2.8-1.6-4.3-2.3
			c-3.7-1.7-8.4,0.2-10,3.9c-0.8,1.8-1.6,3.6-2.4,5.4C288,204.9,286.5,206.4,283.9,206.7z"/>
		<path class="st2" d="M283.9,206.7c2.6-0.3,4.1-1.8,5-3.9c0.8-1.8,1.6-3.6,2.4-5.4c1.6-3.8,6.3-5.7,10-3.9c1.5,0.7,2.8,1.6,4.3,2.3
			c3.2,1.6,5.8,0.6,6.9-2.9c0.7-2.1,1-4.4,1.5-6.5c0.2-0.1,0.4-0.1,0.5-0.2c1.7,3.2,3.7,6.2,5.1,9.6c4.6,10.9,4.7,21.9-0.1,32.8
			c-0.2,0.4-0.6,0.8-1,1.1c-1.6,0.9-3.3,1.7-5,2.4c-0.4,0.2-0.9,0.2-1.3,0.1C298.6,228.6,289.5,219.8,283.9,206.7z"/>
	</g>
	<g class="st5">
		<path class="st6" d="M298.3,283.7c15.6,14.7,31.1,29.3,46.7,44c-2.4,2.6-4.8,5.1-7.3,7.8c-2.4-2.2-4.7-4.4-7.1-6.6
			c-20.6-19.4-41.1-38.7-61.7-58c-0.6-0.6-1.6-0.9-2.4-1c-10.2-0.4-20.4-0.4-30.5-1.2c-15.3-1.2-30.1-4.4-43.7-11.9
			c-11.9-6.5-20.6-16.2-27.2-27.9c-7-12.5-11.3-25.9-13.7-40c-3-17.8-2.9-35.6-1.6-53.5c1.2-16.8,3.6-33.4,6.1-50.1
			c0.2-1.4,0.9-2.4,2.1-3.1c1.7-1,3.6-1.5,5.5-1.1c1.1,0.3,2.4,0.9,3,1.7c9,13.2,21.5,22.1,35.9,28.4c11.2,4.8,22.7,9,34,13.4
			c11.2,4.3,22.2,8.9,32.2,15.7c19.8,13.3,31.7,31.8,36.4,55c2.5,12.2,2.6,24.5,0.9,36.8c-0.1,1,0.1,1.6,0.8,2.2
			c21.8,20.5,43.6,41.1,65.5,61.6c0.4,0.4,0.9,0.8,1.5,1.2c-2.6,2.7-5,5.3-7.4,7.9c-15.6-14.7-31.1-29.2-46.7-44
			C312.6,268.5,305.5,276,298.3,283.7z M283.9,172.6c0.1,0.6,0.1,1.1,0.2,1.7c0.3,3.9,0.2,7.7-1.4,11.4c-2.2,5.4-7.5,7.5-12.7,4.8
			c-1.6-0.8-3-1.9-4.3-3.1c-3-2.8-5.8-5.8-8.9-8.5c-4.1-3.6-8.6-6.8-14.1-8.2c-0.9-0.2-1.8-0.2-3.1-0.4c1.3,2.2,2.4,4,3.5,5.8
			c2.6,4.1,5.1,8.3,6.5,13c1.2,4.2,1.4,8.4-1,12.3c-4.4,7.4-12.2,9.6-20.3,5.7c-5.5-2.6-10-6.5-14.7-10.3
			c-6.2-5-12.4-10.2-19.4-14.1c-0.9-0.5-1.9-1-3.1-1.5c0.1,0.7,0,1,0.1,1.3c1.2,5.4,2.3,10.9,3.6,16.3c2,8.4,3.9,16.9,4.3,25.6
			c0.1,3.2,0,6.4-1.4,9.4c-1.4,3-3.9,4.7-7.2,4.5c-1.7-0.1-3.3-0.6-5.1-0.9c0.8,0.7,1.5,1.5,2.2,2.1c10.2,9.5,22.5,14.9,36,18
			c14.7,3.3,29.6,4,44.6,4c0.6,0,1.3-0.4,1.8-0.9c7.3-7.7,14.5-15.5,21.9-23.2c2.1-2.2,3.2-4.4,3.4-7.4c1.4-14.3,0.5-28.4-4.1-42.2
			C289.4,182.4,287,177.3,283.9,172.6z M313.4,254.9c-4.6-4.3-9.1-8.5-13.6-12.8c-7.2,7.7-14.3,15.2-21.5,22.9
			c4.6,4.3,9,8.5,13.6,12.8C299.1,270.1,306.2,262.5,313.4,254.9z"/>
		<path class="st6" d="M242.1,92.5c-0.3-8.6,6.2-14.4,14.2-16.9c12.4-3.9,24.2,3,26.4,15.6c1.6,9-0.8,17-8.4,22.7
			c-8.8,6.4-22.5,3.1-28.5-6.7C243.2,103.1,242.2,98.6,242.1,92.5z"/>
		<path class="st6" d="M357.8,207.9c-0.2,1.8-0.3,3.6-0.7,5.4c-1.4,6.1-5.6,9.8-12.3,10.7c-4.6,0.6-9.1,0.2-13.5-1.3
			c-6.7-2.3-9.8-6.6-10-13.6c-0.2-6.7,1.4-12.7,6.6-17.3c8.2-7.2,20.1-5.2,26.2,4.2C356.5,199.6,357.8,203.5,357.8,207.9z"/>
		<path class="st6" d="M142.4,237.7c2.3,0.3,4.6,0.4,6.9,0.8c4.4,0.8,7.4,3.5,8.7,7.7c2.6,8.5,0.1,15.9-5.3,22.5
			c-1.5,1.9-3.8,2.7-6.2,2.9c-1.2,0.1-2.4,0.2-3.5,0c-2.5-0.4-5.1-0.9-7.6-1.6c-6.9-2-10.5-7.9-9.3-15.4c0.4-2.6,1.2-5.2,2-7.8
			c1.1-3.3,3.4-5.6,6.2-7.5C136.9,237.7,139.7,237.9,142.4,237.7z"/>
		<path class="st6" d="M324.4,156.7c4.6-0.8,8.4,4.3,8.3,8.1c0,1.6-0.2,3.2-0.7,4.8c-1.2,4.2-3.7,6-8,5.9c-4.1,0-7.3-2.4-8.4-6.2
			c-0.7-2.4-0.7-4.9,0-7.3c0.9-3.1,3.3-5,6.8-5.3C323.1,156.7,323.7,156.7,324.4,156.7z"/>
		<path class="st6" d="M175.5,266.6c5.4,0.1,8.4,3.4,8.2,9.1c-0.2,7-6.6,11.5-12.7,9c-2.8-1.1-4.6-3.3-4.9-6.3c-0.2-2,0-4.1,0.4-6
			c0.7-3.3,2.9-5.2,6.4-5.6C173.8,266.7,174.6,266.7,175.5,266.6z"/>
		<path class="st7" d="M283.9,172.6c3.2,4.8,5.5,9.9,7.3,15.2c4.6,13.7,5.5,27.8,4.1,42.2c-0.3,3-1.4,5.2-3.4,7.4
			c-7.4,7.6-14.6,15.5-21.9,23.2c-0.4,0.5-1.2,0.9-1.8,0.9c-15,0-29.9-0.6-44.6-4c-13.5-3.1-25.8-8.4-36-18
			c-0.7-0.7-1.5-1.4-2.2-2.1c1.8,0.3,3.4,0.8,5.1,0.9c3.4,0.2,5.8-1.5,7.2-4.5c1.4-3,1.6-6.2,1.4-9.4c-0.4-8.7-2.3-17.1-4.3-25.6
			c-1.3-5.4-2.4-10.9-3.6-16.3c-0.1-0.3-0.1-0.6-0.1-1.3c1.2,0.6,2.2,1,3.1,1.5c7,3.9,13.2,9.1,19.4,14.1c4.6,3.8,9.2,7.7,14.7,10.3
			c8.1,3.9,15.9,1.7,20.3-5.7c2.3-3.9,2.2-8.1,1-12.3c-1.4-4.7-3.9-8.9-6.5-13c-1.1-1.8-2.2-3.6-3.5-5.8c1.3,0.2,2.2,0.2,3.1,0.4
			c5.4,1.4,9.9,4.6,14.1,8.2c3.1,2.7,5.9,5.7,8.9,8.5c1.3,1.2,2.7,2.3,4.3,3.1c5.2,2.7,10.5,0.7,12.7-4.8c1.5-3.7,1.7-7.5,1.4-11.4
			C284,173.7,283.9,173.1,283.9,172.6z"/>
		<path class="st7" d="M313.4,254.9c-7.2,7.6-14.3,15.2-21.5,22.9c-4.6-4.3-9-8.5-13.6-12.8c7.2-7.7,14.3-15.2,21.5-22.9
			C304.3,246.4,308.8,250.6,313.4,254.9z"/>
	</g>
	<g class="st5">
		<polygon class="st9" points="370.7,500 169.4,328.8 345,179.8 498.5,247.9 499.5,500 		"/>
		<path class="st6" d="M180.2,260.9c-15.7,14.7-31.1,29.3-46.7,44c-2.5-2.6-4.9-5.2-7.4-7.9c0.6-0.5,1.1-0.8,1.5-1.2
			c21.8-20.5,43.6-41.1,65.5-61.6c0.7-0.7,1-1.3,0.8-2.2c-1.6-12.3-1.5-24.6,0.9-36.8c4.7-23.2,16.6-41.8,36.4-55
			c10-6.7,21-11.3,32.2-15.7c11.4-4.4,22.8-8.6,34-13.4c14.4-6.2,26.9-15.2,35.9-28.4c0.6-0.9,1.9-1.5,3-1.7
			c1.9-0.4,3.8,0.1,5.5,1.1c1.2,0.7,1.9,1.7,2.1,3.1c2.5,16.6,4.9,33.3,6.1,50.1c1.3,17.9,1.4,35.8-1.6,53.5
			c-2.4,14.1-6.7,27.5-13.7,40c-6.6,11.8-15.3,21.4-27.2,27.9c-13.6,7.5-28.4,10.7-43.7,11.9c-10.1,0.8-20.4,0.8-30.5,1.2
			c-0.8,0-1.8,0.4-2.4,1c-20.6,19.3-41.1,38.7-61.7,58c-2.3,2.2-4.7,4.4-7.1,6.6c-2.5-2.7-4.9-5.2-7.3-7.8
			c15.6-14.7,31.1-29.3,46.7-44C194.5,276,187.4,268.5,180.2,260.9z M208.8,187.8c-4.6,13.7-5.5,27.8-4.1,42.2
			c0.3,3,1.4,5.2,3.4,7.4c7.4,7.6,14.6,15.5,21.9,23.2c0.4,0.5,1.2,0.9,1.8,0.9c15,0,29.9-0.6,44.6-4c13.5-3.1,25.8-8.4,36-18
			c0.7-0.7,1.5-1.4,2.2-2.1c-1.8,0.3-3.4,0.8-5.1,0.9c-3.4,0.2-5.8-1.5-7.2-4.5c-1.4-3-1.6-6.2-1.4-9.4c0.4-8.7,2.3-17.1,4.3-25.6
			c1.3-5.4,2.4-10.9,3.6-16.3c0.1-0.3,0.1-0.6,0.1-1.3c-1.2,0.6-2.2,1-3.1,1.5c-7,3.9-13.2,9.1-19.4,14.1
			c-4.6,3.8-9.2,7.7-14.7,10.3c-8.1,3.9-15.9,1.7-20.3-5.7c-2.3-3.9-2.2-8.1-1-12.3c1.4-4.7,3.9-8.9,6.5-13c1.1-1.8,2.2-3.6,3.5-5.8
			c-1.3,0.2-2.2,0.2-3.1,0.4c-5.4,1.4-9.9,4.6-14.1,8.2c-3.1,2.7-5.9,5.7-8.9,8.5c-1.3,1.2-2.7,2.3-4.3,3.1
			c-5.2,2.7-10.5,0.7-12.7-4.8c-1.5-3.7-1.7-7.5-1.4-11.4c0-0.6,0.1-1.1,0.2-1.7C213,177.3,210.6,182.4,208.8,187.8z M208.1,277.8
			c4.6-4.3,9-8.5,13.6-12.8c-7.2-7.7-14.3-15.2-21.5-22.9c-4.5,4.3-9,8.5-13.6,12.8C193.8,262.5,200.9,270.1,208.1,277.8z"/>
		<path class="st6" d="M257.9,92.5c0.3-8.6-6.2-14.4-14.2-16.9c-12.4-3.9-24.2,3-26.4,15.6c-1.6,9,0.8,17,8.4,22.7
			c8.8,6.4,22.5,3.1,28.5-6.7C256.8,103.1,257.8,98.6,257.9,92.5z"/>
		<path class="st6" d="M142.2,207.9c0.2,1.8,0.3,3.6,0.7,5.4c1.4,6.1,5.6,9.8,12.3,10.7c4.6,0.6,9.1,0.2,13.5-1.3
			c6.7-2.3,9.8-6.6,10-13.6c0.2-6.7-1.4-12.7-6.6-17.3c-8.2-7.2-20.1-5.2-26.2,4.2C143.5,199.6,142.2,203.5,142.2,207.9z"/>
		<path class="st6" d="M357.6,237.7c-2.3,0.3-4.6,0.4-6.9,0.8c-4.4,0.8-7.4,3.5-8.7,7.7c-2.6,8.5-0.1,15.9,5.3,22.5
			c1.5,1.9,3.8,2.7,6.2,2.9c1.2,0.1,2.4,0.2,3.5,0c2.5-0.4,5.1-0.9,7.6-1.6c6.9-2,10.5-7.9,9.3-15.4c-0.4-2.6-1.2-5.2-2-7.8
			c-1.1-3.3-3.4-5.6-6.2-7.5C363.1,237.7,360.3,237.9,357.6,237.7z"/>
		<path class="st6" d="M175.6,156.7c-4.6-0.8-8.4,4.3-8.3,8.1c0,1.6,0.2,3.2,0.7,4.8c1.2,4.2,3.7,6,8,5.9c4.1,0,7.3-2.4,8.4-6.2
			c0.7-2.4,0.7-4.9,0-7.3c-0.9-3.1-3.3-5-6.8-5.3C176.9,156.7,176.3,156.7,175.6,156.7z"/>
		<path class="st6" d="M324.5,266.6c-5.4,0.1-8.4,3.4-8.2,9.1c0.2,7,6.6,11.5,12.7,9c2.8-1.1,4.6-3.3,4.9-6.3c0.2-2,0-4.1-0.4-6
			c-0.7-3.3-2.9-5.2-6.4-5.6C326.2,266.7,325.4,266.7,324.5,266.6z"/>
		<path class="st7" d="M216.1,172.6c-3.2,4.8-5.5,9.9-7.3,15.2c-4.6,13.7-5.5,27.8-4.1,42.2c0.3,3,1.4,5.2,3.4,7.4
			c7.4,7.6,14.6,15.5,21.9,23.2c0.4,0.5,1.2,0.9,1.8,0.9c15,0,29.9-0.6,44.6-4c13.5-3.1,25.8-8.4,36-18c0.7-0.7,1.5-1.4,2.2-2.1
			c-1.8,0.3-3.4,0.8-5.1,0.9c-3.4,0.2-5.8-1.5-7.2-4.5c-1.4-3-1.6-6.2-1.4-9.4c0.4-8.7,2.3-17.1,4.3-25.6c1.3-5.4,2.4-10.9,3.6-16.3
			c0.1-0.3,0.1-0.6,0.1-1.3c-1.2,0.6-2.2,1-3.1,1.5c-7,3.9-13.2,9.1-19.4,14.1c-4.6,3.8-9.2,7.7-14.7,10.3
			c-8.1,3.9-15.9,1.7-20.3-5.7c-2.3-3.9-2.2-8.1-1-12.3c1.4-4.7,3.9-8.9,6.5-13c1.1-1.8,2.2-3.6,3.5-5.8c-1.3,0.2-2.2,0.2-3.1,0.4
			c-5.4,1.4-9.9,4.6-14.1,8.2c-3.1,2.7-5.9,5.7-8.9,8.5c-1.3,1.2-2.7,2.3-4.3,3.1c-5.2,2.7-10.5,0.7-12.7-4.8
			c-1.5-3.7-1.7-7.5-1.4-11.4C216,173.7,216.1,173.1,216.1,172.6z"/>
		<path class="st7" d="M186.6,254.9c7.2,7.6,14.3,15.2,21.5,22.9c4.6-4.3,9-8.5,13.6-12.8c-7.2-7.7-14.3-15.2-21.5-22.9
			C195.7,246.4,191.2,250.6,186.6,254.9z"/>
	</g>
	<g>
		<g>
			<path d="M146.4,385.4c-2.2,0-4.1-0.7-5.7-2.1c-1.6-1.4-2.4-3.3-2.4-5.8c0-2.3,0.8-4.1,2.4-5.6c1.6-1.5,3.5-2.2,5.7-2.2
				c2.1,0,3.9,0.7,5.5,2c1.6,1.3,2.4,3.3,2.4,5.8c0,2.5-0.8,4.4-2.3,5.8C150.4,384.7,148.6,385.4,146.4,385.4z M154.3,401.9v46.2
				c0,3.2-0.8,5.6-2.3,7.3s-3.5,2.5-5.8,2.5s-4.2-0.8-5.7-2.5s-2.2-4.1-2.2-7.2v-45.8c0-3.2,0.7-5.5,2.2-7.1
				c1.5-1.6,3.4-2.4,5.7-2.4s4.3,0.8,5.8,2.4C153.6,396.8,154.3,399,154.3,401.9z"/>
			<path d="M170.8,448.1v-69.4c0-3.2,0.7-5.6,2.1-7.3c1.4-1.6,3.3-2.5,5.8-2.5c2.4,0,4.4,0.8,5.9,2.4c1.5,1.6,2.2,4.1,2.2,7.3v69.4
				c0,3.2-0.8,5.7-2.3,7.3c-1.5,1.6-3.4,2.4-5.8,2.4c-2.3,0-4.2-0.8-5.7-2.5S170.8,451.2,170.8,448.1z"/>
			<path d="M203.4,448.1v-69.4c0-3.2,0.7-5.6,2.1-7.3c1.4-1.6,3.3-2.5,5.8-2.5c2.4,0,4.4,0.8,5.9,2.4c1.5,1.6,2.2,4.1,2.2,7.3v69.4
				c0,3.2-0.8,5.7-2.3,7.3c-1.5,1.6-3.4,2.4-5.8,2.4c-2.3,0-4.2-0.8-5.7-2.5S203.4,451.2,203.4,448.1z"/>
			<path d="M277.4,448.8v-2.1c-1.9,2.4-3.9,4.5-6,6.1s-4.4,2.9-6.9,3.7c-2.5,0.8-5.4,1.2-8.6,1.2c-3.9,0-7.3-0.8-10.4-2.4
				c-3.1-1.6-5.4-3.8-7.1-6.6c-2-3.4-3-8.3-3-14.6v-31.7c0-3.2,0.7-5.6,2.2-7.2c1.4-1.6,3.4-2.4,5.7-2.4c2.4,0,4.4,0.8,5.9,2.4
				c1.5,1.6,2.2,4,2.2,7.1v25.6c0,3.7,0.3,6.8,0.9,9.3c0.6,2.5,1.7,4.5,3.4,5.9c1.6,1.4,3.8,2.1,6.6,2.1c2.7,0,5.2-0.8,7.6-2.4
				c2.4-1.6,4.1-3.7,5.2-6.3c0.9-2.3,1.3-7.2,1.3-14.9v-19.5c0-3.2,0.7-5.5,2.2-7.1c1.5-1.6,3.4-2.4,5.8-2.4c2.4,0,4.3,0.8,5.7,2.4
				c1.4,1.6,2.2,4,2.2,7.2v46.3c0,3-0.7,5.3-2.1,6.9c-1.4,1.5-3.2,2.3-5.4,2.3c-2.2,0-4-0.8-5.4-2.4
				C278.1,453.9,277.4,451.7,277.4,448.8z"/>
			<path d="M359.9,436.9c0,4.4-1.1,8.2-3.2,11.3c-2.1,3.1-5.3,5.5-9.5,7.1c-4.2,1.6-9.3,2.4-15.3,2.4c-5.7,0-10.7-0.9-14.8-2.6
				s-7.1-4-9.1-6.6c-2-2.6-2.9-5.3-2.9-7.9c0-1.8,0.6-3.3,1.9-4.5c1.2-1.2,2.8-1.9,4.7-1.9c1.7,0,3,0.4,3.9,1.2
				c0.9,0.8,1.8,2,2.6,3.5c1.6,2.9,3.6,5,5.9,6.4s5.4,2.1,9.3,2.1c3.2,0,5.8-0.7,7.9-2.1c2.1-1.4,3.1-3.1,3.1-4.9
				c0-2.8-1.1-4.9-3.2-6.2c-2.1-1.3-5.6-2.5-10.5-3.7c-5.5-1.4-10-2.8-13.4-4.3c-3.5-1.5-6.2-3.5-8.3-5.9c-2.1-2.5-3.1-5.5-3.1-9.1
				c0-3.2,1-6.2,2.9-9.1c1.9-2.9,4.7-5.1,8.5-6.8c3.7-1.7,8.2-2.5,13.5-2.5c4.1,0,7.9,0.4,11.2,1.3c3.3,0.9,6.1,2,8.3,3.5
				c2.2,1.4,3.9,3,5,4.8c1.2,1.8,1.7,3.5,1.7,5.2c0,1.8-0.6,3.3-1.8,4.5s-3,1.8-5.2,1.8c-1.6,0-3-0.5-4.2-1.4
				c-1.2-0.9-2.5-2.3-4-4.2c-1.2-1.6-2.6-2.8-4.3-3.8s-3.9-1.4-6.7-1.4c-2.9,0-5.3,0.6-7.2,1.8c-1.9,1.2-2.9,2.8-2.9,4.6
				c0,1.7,0.7,3.1,2.1,4.1c1.4,1.1,3.3,2,5.7,2.7c2.4,0.7,5.7,1.6,9.8,2.6c5,1.2,9,2.7,12.2,4.3c3.1,1.7,5.5,3.7,7.1,5.9
				C359.1,431.4,359.9,434,359.9,436.9z"/>
			<path d="M374.3,394.2h1.8v-9.6c0-2.6,0.1-4.6,0.2-6.1c0.1-1.5,0.5-2.7,1.1-3.8c0.6-1.1,1.5-2,2.7-2.7c1.2-0.7,2.5-1,3.9-1
				c2,0,3.9,0.8,5.5,2.3c1.1,1,1.8,2.3,2.1,3.7s0.4,3.5,0.4,6.2v10.9h5.9c2.3,0,4,0.5,5.2,1.6c1.2,1.1,1.8,2.5,1.8,4.1
				c0,2.1-0.8,3.7-2.5,4.5c-1.7,0.9-4.1,1.3-7.3,1.3h-3v29.4c0,2.5,0.1,4.4,0.3,5.8s0.6,2.4,1.4,3.3c0.8,0.8,2,1.3,3.7,1.3
				c0.9,0,2.2-0.2,3.8-0.5c1.6-0.3,2.9-0.5,3.8-0.5c1.3,0,2.5,0.5,3.5,1.6c1,1,1.6,2.3,1.6,3.8c0,2.6-1.4,4.6-4.2,5.9
				s-6.9,2.1-12.1,2.1c-5,0-8.8-0.8-11.4-2.5s-4.3-4-5.1-7c-0.8-3-1.2-6.9-1.2-11.9v-30.7h-2.1c-2.3,0-4.1-0.5-5.3-1.6
				c-1.2-1.1-1.8-2.5-1.8-4.2c0-1.7,0.6-3.1,1.9-4.1C370,394.7,371.9,394.2,374.3,394.2z"/>
		</g>
		<g>
			<path class="st3" d="M146.4,385.4c-2.2,0-4.1-0.7-5.7-2.1c-1.6-1.4-2.4-3.3-2.4-5.8c0-2.3,0.8-4.1,2.4-5.6
				c1.6-1.5,3.5-2.2,5.7-2.2c2.1,0,3.9,0.7,5.5,2c1.6,1.3,2.4,3.3,2.4,5.8c0,2.5-0.8,4.4-2.3,5.8
				C150.4,384.7,148.6,385.4,146.4,385.4z M154.3,401.9v46.2c0,3.2-0.8,5.6-2.3,7.3s-3.5,2.5-5.8,2.5s-4.2-0.8-5.7-2.5
				s-2.2-4.1-2.2-7.2v-45.8c0-3.2,0.7-5.5,2.2-7.1c1.5-1.6,3.4-2.4,5.7-2.4s4.3,0.8,5.8,2.4C153.6,396.8,154.3,399,154.3,401.9z"/>
			<path class="st3" d="M170.8,448.1v-69.4c0-3.2,0.7-5.6,2.1-7.3c1.4-1.6,3.3-2.5,5.8-2.5c2.4,0,4.4,0.8,5.9,2.4
				c1.5,1.6,2.2,4.1,2.2,7.3v69.4c0,3.2-0.8,5.7-2.3,7.3c-1.5,1.6-3.4,2.4-5.8,2.4c-2.3,0-4.2-0.8-5.7-2.5S170.8,451.2,170.8,448.1z
				"/>
			<path class="st3" d="M203.4,448.1v-69.4c0-3.2,0.7-5.6,2.1-7.3c1.4-1.6,3.3-2.5,5.8-2.5c2.4,0,4.4,0.8,5.9,2.4
				c1.5,1.6,2.2,4.1,2.2,7.3v69.4c0,3.2-0.8,5.7-2.3,7.3c-1.5,1.6-3.4,2.4-5.8,2.4c-2.3,0-4.2-0.8-5.7-2.5S203.4,451.2,203.4,448.1z
				"/>
			<path class="st3" d="M277.4,448.8v-2.1c-1.9,2.4-3.9,4.5-6,6.1s-4.4,2.9-6.9,3.7c-2.5,0.8-5.4,1.2-8.6,1.2
				c-3.9,0-7.3-0.8-10.4-2.4c-3.1-1.6-5.4-3.8-7.1-6.6c-2-3.4-3-8.3-3-14.6v-31.7c0-3.2,0.7-5.6,2.2-7.2c1.4-1.6,3.4-2.4,5.7-2.4
				c2.4,0,4.4,0.8,5.9,2.4c1.5,1.6,2.2,4,2.2,7.1v25.6c0,3.7,0.3,6.8,0.9,9.3c0.6,2.5,1.7,4.5,3.4,5.9c1.6,1.4,3.8,2.1,6.6,2.1
				c2.7,0,5.2-0.8,7.6-2.4c2.4-1.6,4.1-3.7,5.2-6.3c0.9-2.3,1.3-7.2,1.3-14.9v-19.5c0-3.2,0.7-5.5,2.2-7.1c1.5-1.6,3.4-2.4,5.8-2.4
				c2.4,0,4.3,0.8,5.7,2.4c1.4,1.6,2.2,4,2.2,7.2v46.3c0,3-0.7,5.3-2.1,6.9c-1.4,1.5-3.2,2.3-5.4,2.3c-2.2,0-4-0.8-5.4-2.4
				C278.1,453.9,277.4,451.7,277.4,448.8z"/>
			<path class="st3" d="M359.9,436.9c0,4.4-1.1,8.2-3.2,11.3c-2.1,3.1-5.3,5.5-9.5,7.1c-4.2,1.6-9.3,2.4-15.3,2.4
				c-5.7,0-10.7-0.9-14.8-2.6s-7.1-4-9.1-6.6c-2-2.6-2.9-5.3-2.9-7.9c0-1.8,0.6-3.3,1.9-4.5c1.2-1.2,2.8-1.9,4.7-1.9
				c1.7,0,3,0.4,3.9,1.2c0.9,0.8,1.8,2,2.6,3.5c1.6,2.9,3.6,5,5.9,6.4s5.4,2.1,9.3,2.1c3.2,0,5.8-0.7,7.9-2.1
				c2.1-1.4,3.1-3.1,3.1-4.9c0-2.8-1.1-4.9-3.2-6.2c-2.1-1.3-5.6-2.5-10.5-3.7c-5.5-1.4-10-2.8-13.4-4.3c-3.5-1.5-6.2-3.5-8.3-5.9
				c-2.1-2.5-3.1-5.5-3.1-9.1c0-3.2,1-6.2,2.9-9.1c1.9-2.9,4.7-5.1,8.5-6.8c3.7-1.7,8.2-2.5,13.5-2.5c4.1,0,7.9,0.4,11.2,1.3
				c3.3,0.9,6.1,2,8.3,3.5c2.2,1.4,3.9,3,5,4.8c1.2,1.8,1.7,3.5,1.7,5.2c0,1.8-0.6,3.3-1.8,4.5s-3,1.8-5.2,1.8c-1.6,0-3-0.5-4.2-1.4
				c-1.2-0.9-2.5-2.3-4-4.2c-1.2-1.6-2.6-2.8-4.3-3.8s-3.9-1.4-6.7-1.4c-2.9,0-5.3,0.6-7.2,1.8c-1.9,1.2-2.9,2.8-2.9,4.6
				c0,1.7,0.7,3.1,2.1,4.1c1.4,1.1,3.3,2,5.7,2.7c2.4,0.7,5.7,1.6,9.8,2.6c5,1.2,9,2.7,12.2,4.3c3.1,1.7,5.5,3.7,7.1,5.9
				C359.1,431.4,359.9,434,359.9,436.9z"/>
			<path class="st3" d="M374.3,394.2h1.8v-9.6c0-2.6,0.1-4.6,0.2-6.1c0.1-1.5,0.5-2.7,1.1-3.8c0.6-1.1,1.5-2,2.7-2.7
				c1.2-0.7,2.5-1,3.9-1c2,0,3.9,0.8,5.5,2.3c1.1,1,1.8,2.3,2.1,3.7s0.4,3.5,0.4,6.2v10.9h5.9c2.3,0,4,0.5,5.2,1.6
				c1.2,1.1,1.8,2.5,1.8,4.1c0,2.1-0.8,3.7-2.5,4.5c-1.7,0.9-4.1,1.3-7.3,1.3h-3v29.4c0,2.5,0.1,4.4,0.3,5.8s0.6,2.4,1.4,3.3
				c0.8,0.8,2,1.3,3.7,1.3c0.9,0,2.2-0.2,3.8-0.5c1.6-0.3,2.9-0.5,3.8-0.5c1.3,0,2.5,0.5,3.5,1.6c1,1,1.6,2.3,1.6,3.8
				c0,2.6-1.4,4.6-4.2,5.9s-6.9,2.1-12.1,2.1c-5,0-8.8-0.8-11.4-2.5s-4.3-4-5.1-7c-0.8-3-1.2-6.9-1.2-11.9v-30.7h-2.1
				c-2.3,0-4.1-0.5-5.3-1.6c-1.2-1.1-1.8-2.5-1.8-4.2c0-1.7,0.6-3.1,1.9-4.1C370,394.7,371.9,394.2,374.3,394.2z"/>
		</g>
		<g>
			<path d="M146.4,385.4c-2.2,0-4.1-0.7-5.7-2.1c-1.6-1.4-2.4-3.3-2.4-5.8c0-2.3,0.8-4.1,2.4-5.6c1.6-1.5,3.5-2.2,5.7-2.2
				c2.1,0,3.9,0.7,5.5,2c1.6,1.3,2.4,3.3,2.4,5.8c0,2.5-0.8,4.4-2.3,5.8C150.4,384.7,148.6,385.4,146.4,385.4z M154.3,401.9v46.2
				c0,3.2-0.8,5.6-2.3,7.3s-3.5,2.5-5.8,2.5s-4.2-0.8-5.7-2.5s-2.2-4.1-2.2-7.2v-45.8c0-3.2,0.7-5.5,2.2-7.1
				c1.5-1.6,3.4-2.4,5.7-2.4s4.3,0.8,5.8,2.4C153.6,396.8,154.3,399,154.3,401.9z"/>
			<path d="M170.8,448.1v-69.4c0-3.2,0.7-5.6,2.1-7.3c1.4-1.6,3.3-2.5,5.8-2.5c2.4,0,4.4,0.8,5.9,2.4c1.5,1.6,2.2,4.1,2.2,7.3v69.4
				c0,3.2-0.8,5.7-2.3,7.3c-1.5,1.6-3.4,2.4-5.8,2.4c-2.3,0-4.2-0.8-5.7-2.5S170.8,451.2,170.8,448.1z"/>
			<path d="M203.4,448.1v-69.4c0-3.2,0.7-5.6,2.1-7.3c1.4-1.6,3.3-2.5,5.8-2.5c2.4,0,4.4,0.8,5.9,2.4c1.5,1.6,2.2,4.1,2.2,7.3v69.4
				c0,3.2-0.8,5.7-2.3,7.3c-1.5,1.6-3.4,2.4-5.8,2.4c-2.3,0-4.2-0.8-5.7-2.5S203.4,451.2,203.4,448.1z"/>
			<path d="M277.4,448.8v-2.1c-1.9,2.4-3.9,4.5-6,6.1s-4.4,2.9-6.9,3.7c-2.5,0.8-5.4,1.2-8.6,1.2c-3.9,0-7.3-0.8-10.4-2.4
				c-3.1-1.6-5.4-3.8-7.1-6.6c-2-3.4-3-8.3-3-14.6v-31.7c0-3.2,0.7-5.6,2.2-7.2c1.4-1.6,3.4-2.4,5.7-2.4c2.4,0,4.4,0.8,5.9,2.4
				c1.5,1.6,2.2,4,2.2,7.1v25.6c0,3.7,0.3,6.8,0.9,9.3c0.6,2.5,1.7,4.5,3.4,5.9c1.6,1.4,3.8,2.1,6.6,2.1c2.7,0,5.2-0.8,7.6-2.4
				c2.4-1.6,4.1-3.7,5.2-6.3c0.9-2.3,1.3-7.2,1.3-14.9v-19.5c0-3.2,0.7-5.5,2.2-7.1c1.5-1.6,3.4-2.4,5.8-2.4c2.4,0,4.3,0.8,5.7,2.4
				c1.4,1.6,2.2,4,2.2,7.2v46.3c0,3-0.7,5.3-2.1,6.9c-1.4,1.5-3.2,2.3-5.4,2.3c-2.2,0-4-0.8-5.4-2.4
				C278.1,453.9,277.4,451.7,277.4,448.8z"/>
			<path d="M359.9,436.9c0,4.4-1.1,8.2-3.2,11.3c-2.1,3.1-5.3,5.5-9.5,7.1c-4.2,1.6-9.3,2.4-15.3,2.4c-5.7,0-10.7-0.9-14.8-2.6
				s-7.1-4-9.1-6.6c-2-2.6-2.9-5.3-2.9-7.9c0-1.8,0.6-3.3,1.9-4.5c1.2-1.2,2.8-1.9,4.7-1.9c1.7,0,3,0.4,3.9,1.2
				c0.9,0.8,1.8,2,2.6,3.5c1.6,2.9,3.6,5,5.9,6.4s5.4,2.1,9.3,2.1c3.2,0,5.8-0.7,7.9-2.1c2.1-1.4,3.1-3.1,3.1-4.9
				c0-2.8-1.1-4.9-3.2-6.2c-2.1-1.3-5.6-2.5-10.5-3.7c-5.5-1.4-10-2.8-13.4-4.3c-3.5-1.5-6.2-3.5-8.3-5.9c-2.1-2.5-3.1-5.5-3.1-9.1
				c0-3.2,1-6.2,2.9-9.1c1.9-2.9,4.7-5.1,8.5-6.8c3.7-1.7,8.2-2.5,13.5-2.5c4.1,0,7.9,0.4,11.2,1.3c3.3,0.9,6.1,2,8.3,3.5
				c2.2,1.4,3.9,3,5,4.8c1.2,1.8,1.7,3.5,1.7,5.2c0,1.8-0.6,3.3-1.8,4.5s-3,1.8-5.2,1.8c-1.6,0-3-0.5-4.2-1.4
				c-1.2-0.9-2.5-2.3-4-4.2c-1.2-1.6-2.6-2.8-4.3-3.8s-3.9-1.4-6.7-1.4c-2.9,0-5.3,0.6-7.2,1.8c-1.9,1.2-2.9,2.8-2.9,4.6
				c0,1.7,0.7,3.1,2.1,4.1c1.4,1.1,3.3,2,5.7,2.7c2.4,0.7,5.7,1.6,9.8,2.6c5,1.2,9,2.7,12.2,4.3c3.1,1.7,5.5,3.7,7.1,5.9
				C359.1,431.4,359.9,434,359.9,436.9z"/>
			<path d="M374.3,394.2h1.8v-9.6c0-2.6,0.1-4.6,0.2-6.1c0.1-1.5,0.5-2.7,1.1-3.8c0.6-1.1,1.5-2,2.7-2.7c1.2-0.7,2.5-1,3.9-1
				c2,0,3.9,0.8,5.5,2.3c1.1,1,1.8,2.3,2.1,3.7s0.4,3.5,0.4,6.2v10.9h5.9c2.3,0,4,0.5,5.2,1.6c1.2,1.1,1.8,2.5,1.8,4.1
				c0,2.1-0.8,3.7-2.5,4.5c-1.7,0.9-4.1,1.3-7.3,1.3h-3v29.4c0,2.5,0.1,4.4,0.3,5.8s0.6,2.4,1.4,3.3c0.8,0.8,2,1.3,3.7,1.3
				c0.9,0,2.2-0.2,3.8-0.5c1.6-0.3,2.9-0.5,3.8-0.5c1.3,0,2.5,0.5,3.5,1.6c1,1,1.6,2.3,1.6,3.8c0,2.6-1.4,4.6-4.2,5.9
				s-6.9,2.1-12.1,2.1c-5,0-8.8-0.8-11.4-2.5s-4.3-4-5.1-7c-0.8-3-1.2-6.9-1.2-11.9v-30.7h-2.1c-2.3,0-4.1-0.5-5.3-1.6
				c-1.2-1.1-1.8-2.5-1.8-4.2c0-1.7,0.6-3.1,1.9-4.1C370,394.7,371.9,394.2,374.3,394.2z"/>
		</g>
	</g>
</g>
<g id="IT">
	<g id="レイヤー_9" class="st5">
		<g id="レイヤー_10" class="st6">
		</g>
	</g>
	<g id="レイヤー_10のコピー">
	</g>
</g>
</svg>
