<?xml version="1.0" encoding="utf-8"?>
<!-- Generator: Adobe Illustrator 20.0.0, SVG Export Plug-In . SVG Version: 6.00 Build 0)  -->
<svg version="1.1" xmlns="http://www.w3.org/2000/svg" xmlns:xlink="http://www.w3.org/1999/xlink" x="0px" y="0px"
	 viewBox="0 0 500 500" style="enable-background:new 0 0 500 500;" xml:space="preserve">
<style type="text/css">
	.st0{fill:#F7C31E;}
	.st1{fill:#DB9B1E;}
	.st2{fill:#FFFFFF;}
	.st3{fill:none;stroke:#FFFFFF;stroke-width:7;}
	.st4{fill:#FFACE4;}
	.st5{display:none;}
	.st6{display:inline;}
	.st7{display:inline;fill:#FFFFFF;}
	.st8{fill:#DB88C8;}
	.st9{display:inline;fill:#DB88C8;}
	.st10{fill:#32C8FC;}
	.st11{stroke:#000000;stroke-width:4;}
	.st12{fill:#3CA3D6;}
</style>
<g id="GAME">
	<g id="レイヤー_2">
	</g>
	<g id="レイヤー_4">
	</g>
	<g id="レイヤー_3">
	</g>
	<g id="レイヤー_1">
	</g>
</g>
<g id="illust">
	<g id="レイヤー_7">
	</g>
</g>
<g id="IT">
	<rect class="st10" width="500" height="500"/>
	<g id="レイヤー_9" class="st5">
		<g class="st6">
			<rect x="159" y="60.3" width="182" height="35.2"/>
			<rect x="159" y="313.1" width="182" height="35.8"/>
			<polygon points="341,159 250,181.7 159,159 159,159 159,159 250,136.3 341,159 341,159 			"/>
			<polygon points="341,256.5 250,279.2 159,256.5 159,256.5 159,256.5 250,233.8 341,256.5 341,256.5 			"/>
			<line class="st11" x1="250" y1="72.7" x2="250" y2="340.7"/>
			<line class="st11" x1="398" y1="114.3" x2="398" y2="255.8"/>
			<line class="st11" x1="399.8" y1="115.8" x2="250" y2="115.8"/>
			<line class="st11" x1="399.8" y1="255.8" x2="250" y2="255.8"/>
			<line class="st11" x1="96.4" y1="158.5" x2="96.4" y2="300"/>
			<line class="st11" x1="94.6" y1="160" x2="244.4" y2="160"/>
			<line class="st11" x1="94.6" y1="300" x2="252.4" y2="300"/>
		</g>
		<g id="レイヤー_10" class="st6">
			<polygon class="st12" points="385,502.3 250,340.7 250,313.1 250,271.1 322.8,258 398,255.8 396.8,173.8 501.3,265.8 500,500 			
				"/>
		</g>
	</g>
	<g id="レイヤー_10のコピー">
		<polygon class="st12" points="385,502.3 208.6,308.5 239.1,278 250,251.1 313.9,223 339.7,172 375.2,134.8 501.3,245.8 500,500 		
			"/>
	</g>
	<g>
		<g>
			<path d="M210.6,446.4v-67.7c0-3.5,0.8-6.2,2.4-7.9c1.6-1.8,3.7-2.6,6.2-2.6c2.6,0,4.7,0.9,6.4,2.6c1.6,1.7,2.4,4.4,2.4,7.9v67.7
				c0,3.6-0.8,6.2-2.4,8c-1.6,1.8-3.7,2.6-6.4,2.6c-2.5,0-4.6-0.9-6.2-2.7C211.4,452.6,210.6,449.9,210.6,446.4z"/>
			<path d="M303.3,384h-19v62.4c0,3.6-0.8,6.3-2.4,8c-1.6,1.7-3.7,2.6-6.2,2.6c-2.6,0-4.7-0.9-6.3-2.6c-1.6-1.8-2.4-4.4-2.4-8V384
				h-19c-3,0-5.2-0.7-6.6-2c-1.4-1.3-2.2-3-2.2-5.2c0-2.2,0.8-4,2.3-5.3c1.5-1.3,3.7-1.9,6.5-1.9h55.3c3,0,5.2,0.7,6.7,2
				c1.5,1.3,2.2,3.1,2.2,5.2c0,2.1-0.7,3.9-2.2,5.2C308.4,383.4,306.2,384,303.3,384z"/>
		</g>
		<g>
			<path class="st3" d="M210.6,446.4v-67.7c0-3.5,0.8-6.2,2.4-7.9c1.6-1.8,3.7-2.6,6.2-2.6c2.6,0,4.7,0.9,6.4,2.6
				c1.6,1.7,2.4,4.4,2.4,7.9v67.7c0,3.6-0.8,6.2-2.4,8c-1.6,1.8-3.7,2.6-6.4,2.6c-2.5,0-4.6-0.9-6.2-2.7
				C211.4,452.6,210.6,449.9,210.6,446.4z"/>
			<path class="st3" d="M303.3,384h-19v62.4c0,3.6-0.8,6.3-2.4,8c-1.6,1.7-3.7,2.6-6.2,2.6c-2.6,0-4.7-0.9-6.3-2.6
				c-1.6-1.8-2.4-4.4-2.4-8V384h-19c-3,0-5.2-0.7-6.6-2c-1.4-1.3-2.2-3-2.2-5.2c0-2.2,0.8-4,2.3-5.3c1.5-1.3,3.7-1.9,6.5-1.9h55.3
				c3,0,5.2,0.7,6.7,2c1.5,1.3,2.2,3.1,2.2,5.2c0,2.1-0.7,3.9-2.2,5.2C308.4,383.4,306.2,384,303.3,384z"/>
		</g>
		<g>
			<path d="M210.6,446.4v-67.7c0-3.5,0.8-6.2,2.4-7.9c1.6-1.8,3.7-2.6,6.2-2.6c2.6,0,4.7,0.9,6.4,2.6c1.6,1.7,2.4,4.4,2.4,7.9v67.7
				c0,3.6-0.8,6.2-2.4,8c-1.6,1.8-3.7,2.6-6.4,2.6c-2.5,0-4.6-0.9-6.2-2.7C211.4,452.6,210.6,449.9,210.6,446.4z"/>
			<path d="M303.3,384h-19v62.4c0,3.6-0.8,6.3-2.4,8c-1.6,1.7-3.7,2.6-6.2,2.6c-2.6,0-4.7-0.9-6.3-2.6c-1.6-1.8-2.4-4.4-2.4-8V384
				h-19c-3,0-5.2-0.7-6.6-2c-1.4-1.3-2.2-3-2.2-5.2c0-2.2,0.8-4,2.3-5.3c1.5-1.3,3.7-1.9,6.5-1.9h55.3c3,0,5.2,0.7,6.7,2
				c1.5,1.3,2.2,3.1,2.2,5.2c0,2.1-0.7,3.9-2.2,5.2C308.4,383.4,306.2,384,303.3,384z"/>
		</g>
	</g>
	<g>
		<path d="M361.1,178.1c-12.2,11.6-24.5,23.3-36.7,34.9c-14.5,13.8-29,27.5-43.5,41.3c-12.7,12-25.3,24.1-37.9,36.1
			c-17.6,16.7-35.3,33.3-52.7,50.2c-9.5,9.3-23.2,8.6-31.4,0.3c-3.4-3.5-6.7-7-10.1-10.6c-13.8-14.6-27.6-29.2-41.5-43.7
			c-9.1-9.5-8.8-23,0.8-32c10.4-9.7,20.7-19.6,31-29.4c11.2-10.6,22.3-21.2,33.5-31.9c13.7-13,27.4-26.1,41.1-39.1
			c10.7-10.2,21.4-20.4,32.2-30.6c13.6-12.9,27.2-25.9,40.8-38.8c2.2-2.1,4.3-4.1,6.5-6.2c4,4.2,7.8,8.2,11.8,12.4
			c13.6-12.9,27.1-25.8,40.7-38.7c19.4,20.4,38.8,40.8,58.3,61.3c-13.6,12.9-27.1,25.8-40.7,38.7c3.9,4.1,7.8,8.2,11.8,12.4
			C370.4,169.3,365.7,173.7,361.1,178.1z M359.6,148.6c12.3-11.7,24.5-23.3,36.8-35c-17-17.9-33.9-35.6-50.9-53.5
			c-12.3,11.7-24.5,23.3-36.8,35C325.6,112.9,342.5,130.6,359.6,148.6z M250.2,205.2c2.5,1.4,5.2,1.9,8,0.9c2.2-0.7,4-2.1,5.2-4
			c2.5-3.8,1.9-9-1.4-12.2c-3.3-3.2-8.5-3.7-12.3-1.2c-3.2,2.2-6,6.9-3.2,12.8c-14,13.3-27.9,26.6-42.1,40c-0.4-4-0.8-7.7-1.1-11.4
			c-0.4-4.5-0.9-8.9-1.3-13.4c-0.1-1.1,0.1-1.8,0.9-2.6c4.1-3.8,8.2-7.7,12.2-11.6c0.6-0.5,1-0.7,1.8-0.3c4,1.9,8.6,0.9,11.4-2.3
			c2.9-3.3,3.3-8,1-11.7c-2.2-3.6-6.7-5.3-10.7-4.2c-4.2,1.2-7.2,4.9-7.3,9.3c0,1.3,0.4,2.6,0.8,3.8c0.2,0.7,0.2,1.1-0.4,1.7
			c-4.7,4.5-9.4,9-14.2,13.4c-0.7,0.7-1,1.3-0.9,2.3c0.8,8.1,1.6,16.1,2.4,24.2c0.2,2.2,0.5,4.4,0.6,6.6c0,0.4-0.1,1-0.4,1.2
			c-5.7,5.4-11.4,10.9-17.1,16.3c-9.7-7.1-21-3.8-26.4,3.4c-5.6,7.5-4.8,17.8,2,24.5c6.4,6.3,16.9,6.8,24.1,1.3
			c7.1-5.5,10-16.1,3.8-25.5c2.6-2.5,5.2-5,7.8-7.4c0.3-0.3,1-0.3,1.6-0.2c7.5,1.2,15,2.5,22.4,3.8c4.4,0.8,4.4,0.8,7.6-2.3
			c3.7-3.5,7.4-7,11.1-10.6c0.6-0.6,1-0.5,1.7-0.3c3.8,1.5,7.3,1,10.3-1.8c3-2.8,3.9-6.2,2.7-10.1c-1.2-3.9-4-6.2-8-6.8
			c-3.6-0.5-6.7,0.8-8.9,3.6c-2.3,3-2.7,6.3-1.3,9.8c0.4,1,0.3,1.4-0.4,2.1c-3.7,3.4-7.4,6.9-11,10.4c-0.6,0.6-1.3,1-2.2,0.8
			c-6.7-1.2-13.4-2.3-20.4-3.5C216,237.7,233,221.5,250.2,205.2z"/>
		<path class="st2" d="M345.5,60c17,17.9,33.9,35.7,50.9,53.5c-12.4,11.7-24.6,23.4-36.8,35c-17-17.9-33.9-35.7-50.9-53.5
			C321,83.4,333.2,71.7,345.5,60z M362.6,107c-2.9,2.7-5.7,5.4-8.6,8.2c4.2,4.4,8.4,8.8,12.6,13.3c2.8-2.7,5.7-5.4,8.6-8.2
			C371,115.8,366.8,111.5,362.6,107z M350.3,94.1c-4.2-4.4-8.4-8.8-12.6-13.3c-2.8,2.7-5.6,5.4-8.6,8.2c4.2,4.4,8.4,8.8,12.6,13.3
			C344.6,99.5,347.4,96.9,350.3,94.1z"/>
		<path class="st2" d="M198.7,254.2c17.3-16.5,34.4-32.7,51.5-49c2.5,1.4,5.2,1.9,8,0.9c2.2-0.7,4-2.1,5.2-4c2.5-3.8,1.9-9-1.4-12.2
			c-3.3-3.2-8.5-3.7-12.3-1.2c-3.2,2.2-6,6.9-3.2,12.8c-14,13.3-27.9,26.6-42.1,40c-0.4-4-0.8-7.7-1.1-11.4
			c-0.4-4.5-0.9-8.9-1.3-13.4c-0.1-1.1,0.1-1.8,0.9-2.6c4.1-3.8,8.2-7.7,12.2-11.6c0.6-0.5,1-0.7,1.8-0.3c4,1.9,8.6,0.9,11.4-2.3
			c2.9-3.3,3.3-8,1-11.7c-2.2-3.6-6.7-5.3-10.7-4.2c-4.2,1.2-7.2,4.9-7.3,9.3c0,1.3,0.4,2.6,0.8,3.8c0.2,0.7,0.2,1.1-0.4,1.7
			c-4.7,4.5-9.4,9-14.2,13.4c-0.7,0.7-1,1.3-0.9,2.3c0.8,8.1,1.6,16.1,2.4,24.2c0.2,2.2,0.5,4.4,0.6,6.6c0,0.4-0.1,1-0.4,1.2
			c-5.7,5.4-11.4,10.9-17.1,16.3c-9.7-7.1-21-3.8-26.4,3.4c-5.6,7.5-4.8,17.8,2,24.5c6.4,6.3,16.9,6.8,24.1,1.3
			c7.1-5.5,10-16.1,3.8-25.5c2.6-2.5,5.2-5,7.8-7.4c0.3-0.3,1-0.3,1.6-0.2c7.5,1.2,15,2.5,22.4,3.8c4.4,0.8,4.4,0.8,7.6-2.3
			c3.7-3.5,7.4-7,11.1-10.6c0.6-0.6,1-0.5,1.7-0.3c3.8,1.5,7.3,1,10.3-1.8c3-2.8,3.9-6.2,2.7-10.1c-1.2-3.9-4-6.2-8-6.8
			c-3.6-0.5-6.7,0.8-8.9,3.6c-2.3,3-2.7,6.3-1.3,9.8c0.4,1,0.3,1.4-0.4,2.1c-3.7,3.4-7.4,6.9-11,10.4c-0.6,0.6-1.3,1-2.2,0.8
			C212.4,256.5,205.7,255.4,198.7,254.2z"/>
		<path d="M375.2,120.3c-4.3-4.5-8.4-8.8-12.6-13.3c-2.9,2.7-5.7,5.4-8.6,8.2c4.2,4.4,8.4,8.8,12.6,13.3
			C369.5,125.8,372.3,123.1,375.2,120.3z"/>
		<path d="M341.7,102.3c2.9-2.8,5.7-5.4,8.6-8.2c-4.2-4.4-8.4-8.8-12.6-13.3c-2.8,2.7-5.6,5.4-8.6,8.2
			C333.3,93.4,337.4,97.8,341.7,102.3z"/>
	</g>
</g>
</svg>
