<?xml version="1.0" encoding="utf-8"?>
<!-- Generator: Adobe Illustrator 20.0.0, SVG Export Plug-In . SVG Version: 6.00 Build 0)  -->
<svg version="1.1" xmlns="http://www.w3.org/2000/svg" xmlns:xlink="http://www.w3.org/1999/xlink" x="0px" y="0px"
	 viewBox="0 0 500 80" style="enable-background:new 0 0 500 80;" xml:space="preserve">
<style type="text/css">
	.st0{display:none;fill:#5B5B5B;}
	.st1{fill:#3A3A3A;}
	.st2{fill:#FFFFFF;}
</style>
<g id="レイヤー_1">
</g>
<g id="レイヤー_2">
	<rect class="st1" width="500" height="80"/>
	<g>
		<path class="st2" d="M195.6,43.4c-1.7,0.2-4.2,0.3-6.5,0.3c-0.1,1.5-0.1,1.7-0.1,2.1c0,3.8,2.3,4.5,5.2,4.5c1.2,0,2.5-0.2,3.7-0.5
			c1.7-0.4,2.5-1.6,2.5-3.1c0-1.5-0.7-3.2-2.2-5c0.8-0.2,2-0.7,2.6-1c1.7,2.4,2.6,4.6,2.6,6.5c0,5.8-7.6,5.8-9.3,5.8
			c-4.3,0-8-1.1-8-7.3c0-0.7,0.1-1.4,0.1-2.1c-2.1-0.1-6.2-0.3-6.2-3.5c0-1.2,0.8-2.6,2.4-3.9l2.2,1.1c-1.2,0.7-1.9,1.6-1.9,2.4
			c0,1.3,1.9,1.4,3.7,1.4c0.2-1.8,0.4-3.8,0.6-5.9c-2-0.2-4.3-0.7-5.9-1.5l0.6-2.7c1.5,0.7,3.5,1.2,5.5,1.5c0.2-1.7,0.4-3.5,0.6-5
			l4,0.5c-0.1,0.3-0.4,0.6-1,0.6c-0.2,1.1-0.4,2.6-0.7,4.1c0.8,0.1,1.7,0.1,2.6,0.1c1,0,2.1,0,3-0.1l-0.1,2.7
			c-0.8,0.1-1.9,0.1-2.9,0.1c-1,0-2,0-2.9-0.1c-0.2,1.9-0.5,3.9-0.6,5.7c2.1,0,4.4-0.2,6.2-0.4L195.6,43.4z"/>
		<path class="st2" d="M210.4,38.3c0.6-0.1,1.6-0.4,2.8-0.7c4-1.2,8-2,10.4-2c4,0,7.6,2.1,7.6,6.9c0,6.5-6.1,8.8-14.3,9.5
			c-0.1-0.6-0.6-2-0.8-2.5c6.9-0.5,12.2-2.3,12.2-6.8c0-3.2-2.3-4.6-5.1-4.6c-2,0-5.4,0.7-9.4,2.1c-0.6,0.2-1.3,0.5-1.8,0.7
			c-0.1,0.3-0.3,0.5-0.6,0.5L210.4,38.3z"/>
		<path class="st2" d="M259.4,37.9c-0.1,0-0.2,0-0.3,0c-0.2,0-0.5-0.1-0.7-0.2c-8.7,2.4-15.8,5.9-15.8,9.4c0,2.5,2.7,3.4,7.1,3.4
			s8.2-0.4,10.2-0.7l0.3,2.9c-2.1,0.3-5.9,0.6-10.6,0.6c-5.6,0-9.9-1.4-10-5.9c0-3.1,2.9-5.7,7.3-8.1c-1-1.9-1.4-5.2-1.3-11.6
			l4.2,0.3c-0.1,0.4-0.3,0.6-0.9,0.7c-0.1,4.6,0.1,7.6,0.8,9.3c2.6-1.2,5.5-2.3,8.6-3.3L259.4,37.9z"/>
		<path class="st2" d="M277.1,45.3c0,0.2-0.3,0.4-0.7,0.5c-0.8,4.1-2.2,6.9-9.5,8.4c-0.2-0.7-1-1.9-1.5-2.5c6.4-1.1,7.7-3.1,8.2-6.8
			L277.1,45.3z M283.5,50.2c0,0.9,0.2,1,1.4,1h3.8c1.1,0,1.3-0.5,1.5-4.1c0.6,0.5,1.8,0.9,2.6,1.1c-0.3,4.4-1.1,5.5-3.7,5.5h-4.4
			c-3.1,0-3.9-0.8-3.9-3.6v-6h-11V27.9h18.8v16.3h-5V50.2z M272.3,30.2v2.5h13.4v-2.5H272.3z M272.3,34.8v2.5h13.4v-2.5H272.3z
			 M272.3,39.4V42h13.4v-2.5H272.3z"/>
		<path class="st2" d="M305.5,39.4c1.8-0.8,4.4-1.3,6.4-1.3c4.5,0,7.5,2.7,7.5,7.1c0,5.2-4.6,8.2-10.6,8.2c-3.8,0-6.4-1.6-6.4-4.4
			c0-2.2,2.3-4.1,5-4.1c3.2,0,5.4,2.3,5.9,4.9c1.9-0.8,3.2-2.4,3.2-4.6c0-2.8-2.2-4.6-5.5-4.6c-4.1,0-8.1,1.8-10.1,3.7
			c-0.8,0.7-1.9,1.9-2.7,2.8l-2.1-2c2.3-2.4,10.1-9.8,14-13.4c-1.5,0.2-7,0.5-9.7,0.6c-0.1,0.2-0.4,0.4-0.6,0.5l-0.3-3.3
			c3.8,0,11.7-0.3,13.7-0.6l0.4-0.2l2,2.4c-0.2,0.2-0.5,0.3-0.8,0.3C312.8,32.5,307.8,37.2,305.5,39.4L305.5,39.4z M308.2,50.8
			c0.6,0,1.6-0.1,2.2-0.2c-0.3-1.9-1.7-3.4-3.4-3.4c-1.2,0-2.3,0.7-2.3,1.7C304.6,50.4,306.6,50.8,308.2,50.8z"/>
	</g>
	<g>
		<path class="st2" d="M462.8,29.1l23.8,12.4v0.1l-23.8,12.4l-1.2-2.3l19.5-10v-0.1l-19.5-10L462.8,29.1z"/>
	</g>
</g>
<g id="レイヤー_3">
</g>
</svg>
