<?xml version="1.0" encoding="utf-8"?>
<!-- Generator: Adobe Illustrator 20.0.0, SVG Export Plug-In . SVG Version: 6.00 Build 0)  -->
<svg version="1.1" xmlns="http://www.w3.org/2000/svg" xmlns:xlink="http://www.w3.org/1999/xlink" x="0px" y="0px"
	 viewBox="0 0 300 80" style="enable-background:new 0 0 300 80;" xml:space="preserve">
<style type="text/css">
	.st0{display:none;fill:#5B5B5B;}
	.st1{fill:#3A3A3A;}
	.st2{fill:#FFFFFF;}
	.st3{display:none;}
	.st4{display:inline;fill:#FFFFFF;}
</style>
<g id="レイヤー_1">
</g>
<g id="レイヤー_2">
</g>
<g id="レイヤー_3">
	<rect class="st1" width="300" height="80"/>
	<g>
		<path class="st2" d="M102.6,39.7l0.3,2.4l-3.1,1V51c0,2.6-0.9,3.1-5.3,3c-0.1-0.7-0.4-1.8-0.8-2.5c0.7,0,1.5,0.1,2,0.1
			c1.2,0,1.4,0,1.4-0.6v-7c-1.2,0.4-2.2,0.7-3.1,1c0,0.3-0.2,0.4-0.4,0.5l-0.9-3.1c1.2-0.3,2.8-0.7,4.4-1.2v-6.1h-4v-2.6h4v-5.6
			l3.4,0.2c0,0.3-0.2,0.4-0.7,0.5v5h3.1v2.6h-3.1v5.3L102.6,39.7z M116.5,39.4l1.8,0.8c0,0.2-0.2,0.3-0.3,0.3c-1,3.3-2.7,6-4.9,8.1
			c2,1.4,4.5,2.3,7.3,2.9c-0.6,0.6-1.4,1.7-1.8,2.5c-3-0.8-5.5-1.9-7.7-3.6c-2.3,1.6-5,2.8-7.9,3.6c-0.3-0.7-0.9-1.9-1.5-2.5
			c2.7-0.6,5.2-1.6,7.3-3c-1.6-1.7-2.8-3.7-3.8-6l1.9-0.6H104v-2.5h12L116.5,39.4z M108.1,30.6c0,1.8,0,5.9-4.1,8.5
			c-0.3-0.5-1.3-1.6-1.8-2c2.9-1.8,3.3-4.2,3.3-6.1v-3h10v6.8c0,0.7,0.1,0.8,0.5,0.8h1.3c0.5,0,0.6-0.4,0.7-3.2
			c0.5,0.4,1.6,0.8,2.3,1c-0.2,3.6-0.9,4.6-2.7,4.6h-2c-2.1,0-2.7-0.7-2.7-3.1v-4.2H108.1z M107.5,42c0.8,1.9,1.9,3.5,3.4,4.9
			c1.5-1.4,2.7-3,3.6-4.9H107.5z"/>
		<path class="st2" d="M131.5,48.3c-0.1,0.2-0.4,0.3-0.7,0.3c-1.7,1.8-4.4,3.7-6.8,4.8c-0.5-0.5-1.4-1.4-2-1.8c2.3-1,5-2.8,6.5-4.5
			L131.5,48.3z M122.3,28h26.4v2.2h-8.8v1.9h6.7v7h-22.2v-7h6.4v-1.9h-8.5V28z M122.4,46.8v-2.2h26.3v2.2h-11.8v4.5
			c0,2.5-1.1,2.8-5.6,2.8c-0.1-0.7-0.5-1.7-0.9-2.4c0.8,0,1.7,0.1,2.3,0.1c1.3,0,1.5,0,1.5-0.5v-4.4H122.4z M125.9,40.8h19.3v2.1
			h-19.3V40.8z M127,34.2v3h3.8v-3H127z M137.3,32.2v-1.9h-3.9v1.9H137.3z M133.4,34.2v3h3.9v-3H133.4z M146.4,53.3
			c-1.4-1.3-4.4-3.4-6.8-4.7l2.1-1.5c2.3,1.2,5.4,3.2,6.9,4.5L146.4,53.3z M143.9,34.2h-4v3h4V34.2z"/>
		<path class="st2" d="M151.9,31.9c1.8-0.1,10.7-0.3,12.7-0.4c0-0.4-0.1-3.5-0.2-4.3l3.9,0.2c0,0.3-0.3,0.6-0.8,0.6
			c0,0.8,0,2.1,0.1,3.4c3.7-0.1,7.5-0.2,9.3-0.2v2.7c-2.2,0-5.7,0-9.3,0.1c0,1.1,0,2.1,0.1,2.8c0.1,1,0.1,1.8,0.1,2.7
			c0.4,1.1,0.4,2.5,0.4,3.2c0,5.9-4.1,9.4-8.7,11.2c-0.5-0.7-1.5-1.7-2.1-2.3c3.7-1.3,6.1-3.3,7-5.5h0c-0.5,0.6-1.3,1-2.3,1
			c-2.6,0-5-2.1-5-5.2c0-3.2,2.6-5.5,5.4-5.5c0.9,0,1.7,0.2,2.3,0.6c0-0.1,0-0.2,0-0.3c0-0.6-0.1-1.7-0.1-2.7
			c-4.8,0.1-9.5,0.3-12.7,0.4L151.9,31.9z M165.3,42c0-2.1-0.9-3.1-2.6-3.1c-1.7,0-3,1.3-3,3.2c0,1.7,1.3,2.9,2.8,2.9
			C164.3,44.9,165.3,43.5,165.3,42z"/>
		<path class="st2" d="M191,39.4c1.8-0.8,4.4-1.3,6.4-1.3c4.5,0,7.5,2.7,7.5,7.1c0,5.2-4.6,8.2-10.6,8.2c-3.8,0-6.4-1.6-6.4-4.4
			c0-2.2,2.3-4.1,5-4.1c3.2,0,5.4,2.3,5.9,4.9c1.9-0.8,3.2-2.4,3.2-4.6c0-2.8-2.2-4.6-5.5-4.6c-4.1,0-8.1,1.8-10.1,3.7
			c-0.8,0.7-1.9,1.9-2.7,2.8l-2.1-2c2.3-2.4,10.1-9.8,14-13.4c-1.5,0.2-7,0.5-9.7,0.6c-0.1,0.2-0.4,0.4-0.6,0.5l-0.3-3.3
			c3.8,0,11.7-0.3,13.7-0.6l0.4-0.2l2,2.4c-0.2,0.2-0.5,0.3-0.8,0.3C198.3,32.5,193.3,37.2,191,39.4L191,39.4z M193.7,50.8
			c0.6,0,1.6-0.1,2.2-0.2c-0.3-1.9-1.7-3.4-3.4-3.4c-1.2,0-2.3,0.7-2.3,1.7C190.1,50.4,192.1,50.8,193.7,50.8z"/>
	</g>
	<g class="st3">
		<path class="st4" d="M264.1,29.1L288,41.4v0.1l-23.8,12.4l-1.2-2.3l19.5-10v-0.1l-19.5-10L264.1,29.1z"/>
	</g>
</g>
</svg>
