<?xml version="1.0" encoding="iso-8859-1"?>
<!-- Generator: Adobe Illustrator 20.0.0, SVG Export Plug-In . SVG Version: 6.00 Build 0)  -->
<svg version="1.1" id="&#x30EC;&#x30A4;&#x30E4;&#x30FC;_1"
	 xmlns="http://www.w3.org/2000/svg" xmlns:xlink="http://www.w3.org/1999/xlink" x="0px" y="0px" viewBox="0 0 240.143 199.726"
	 style="enable-background:new 0 0 240.143 199.726;" xml:space="preserve">
<g>
	<path style="fill:#E8374A;" d="M41.15,153.899v6.796H26.784v38.062H14.459v-38.062H0v-6.796H41.15z"/>
	<path style="fill:#E8374A;" d="M77.34,153.899v6.981H57.091v11.288h18.83v6.623h-18.83v12.822h20.56v7.144h-32.87v-44.858H77.34z"
		/>
	<path style="fill:#E8374A;" d="M116.872,161.928c-1.67-0.597-5.453-1.819-9.572-1.819c-7.891,0-14.662,4.795-14.662,16.081
		c0,12.449,7.405,16.44,14.188,16.44c4.167,0,7.84-1.541,10.046-2.511l2.551,6.461c-2.551,1.032-7.28,2.846-15.074,2.846
		c-16.304,0-24.877-10.537-24.877-22.866c0-13.292,9.732-23.257,26.05-23.257c4.416,0,9.22,0.646,13.714,2.189L116.872,161.928z"/>
	<path style="fill:#E8374A;" d="M134.955,153.899v18.183h18.819v-18.183h12.272v44.858h-12.272v-19.886h-18.819v19.886h-12.282
		v-44.858H134.955z"/>
	<path style="fill:#E8374A;" d="M224.17,190.428c-4.219,2.167-8.649,3.359-12.729,3.359c-10.845,0-18.174-7.004-18.174-17.073
		c0-9.932,7.58-17.216,17.887-17.216c4.414,0,8.464,1.072,13.015,3.323v-6.571c-4.991-1.89-8.972-2.649-12.955-2.649
		c-14.277,0-24.645,9.98-24.645,23.71c0,9.408,7.36,22.415,24.272,22.415c5.489,0,9.647-1.058,13.328-2.551V190.428z"/>
	<path style="fill:#E8374A;" d="M183.082,198.332c0,0.323-0.243,0.657-0.629,0.657h-6.974c-0.307,0-0.607-0.334-0.607-0.657v-6.941
		c0-0.412,0.3-0.676,0.607-0.676h6.974c0.386,0,0.629,0.264,0.629,0.676V198.332z"/>
	<path style="fill:#E8374A;" d="M240.143,198.332c0,0.323-0.261,0.658-0.587,0.658h-6.971c-0.386,0-0.635-0.334-0.635-0.658v-6.946
		c0-0.409,0.249-0.671,0.635-0.671h6.969c0.327,0,0.588,0.262,0.588,0.671V198.332z"/>
	<path style="fill:#727171;" d="M207.884,116.126c-3.361-3.592-7.506-5.397-12.427-5.397c-4.915,0-9.123,1.805-12.617,5.397
		c-3.627,3.755-5.443,8.191-5.443,13.32c0,5.133,1.752,9.503,5.245,13.102c3.621,3.753,7.9,5.619,12.815,5.619
		c4.92,0,9.066-1.805,12.427-5.412c3.371-3.734,5.054-8.177,5.054-13.31C212.939,124.173,211.256,119.737,207.884,116.126z"/>
	<path style="fill:#727171;" d="M179.34,20.803l3.765,42.737l3.716,42.331h17.228l7.529-88.593C211.578,5.773,206.196,0,195.456,0
		c-10.871,0-16.306,5.829-16.306,17.487c0,0.274,0.064,0.836,0.19,1.658C179.34,19.844,179.34,20.395,179.34,20.803z"/>
	<path style="fill:#E8374A;" d="M97.84,37.269l1.084-3.545H80.762l-5.97,29.859l-4.481-29.859H51.155L47.09,63.583l-6.385-29.859
		H22.458l15.178,49.596h18.41l4.647-29.443l4.643,29.443H83.75l5.172-16.906c-0.604-2.33-0.93-4.879-0.93-7.645
		C87.992,49.637,91.628,42.031,97.84,37.269z"/>
	<path style="fill:#727171;" d="M115.529,73.283c-3.152,0-10.365-0.995-10.534-10.946h36.989
		c-0.665-8.627-2.569-30.438-27.204-30.438c-6.715,0-12.488,1.958-16.94,5.371l-8.918,29.144
		c3.219,12.437,14.358,18.729,26.44,18.729c11.693,0,17.915-5.557,20.489-8.376c2.815-2.985,3.81-5.555,4.976-8.376h-16.922
		C122.661,70.461,121.002,73.283,115.529,73.283z M115.029,43.758c7.466,0,9.372,5.968,9.951,7.879h-19.901
		C105.744,49.727,107.567,43.758,115.029,43.758z"/>
	<path style="fill:#727171;" d="M91.308,137.361v-29.025c0-13.434-12.357-16.588-23.967-16.588
		c-24.383,0.003-25.545,11.781-26.125,17.005h16.339c-0.086-2.571-0.086-4.896,9.87-4.896c2.072,0,7.047,0,7.047,4.397
		c0,3.314-3.814,3.814-7.711,4.395c-18.246,2.572-27.952,3.982-27.952,16.589c0,12.688,8.96,15.756,17.501,15.756
		c10.7,0,15.425-4.065,18.246-7.297c0,2.072,0.248,3.653,1.33,5.472h17.665v-1.161C91.808,140.931,91.308,139.104,91.308,137.361z
		 M74.556,123.431c0,6.556-6.301,9.124-11.779,9.124c-1.823,0-6.466-0.083-6.466-3.566c0-3.733,3.484-4.397,9.621-5.558
		c5.556-0.993,6.136-1.078,8.624-2.239V123.431z"/>
	<path style="fill:#E8374A;" d="M126.032,91.748c-13.184,0-15.344,7.382-16.504,11.367l-0.249-9.538H94.186v49.592h16.671v-19.406
		c0-9.765,5.152-13.29,9.778-13.846c1.091-3.713,2.894-6.996,5.306-9.712L126.032,91.748z"/>
	<path style="fill:#E8374A;" d="M146.955,133.136c-3.15,0-10.373-0.993-10.533-10.948h36.988
		c-0.663-8.623-2.57-30.439-27.204-30.439c-8.54,0-15.557,3.153-20.266,8.458l-0.109,10.358c-1.34-0.587-3.222-0.886-5.197-0.646
		c-0.792,2.691-1.216,5.61-1.216,8.705c0,17.5,13.021,26.373,27.367,26.373c11.698,0,17.918-5.555,20.487-8.375
		c2.822-2.988,3.816-5.56,4.979-8.375h-16.918C154.088,130.316,152.426,133.136,146.955,133.136z M146.457,103.61
		c7.461,0,9.37,5.972,9.954,7.879h-19.908C137.166,109.582,138.991,103.61,146.457,103.61z"/>
</g>
</svg>
