<?xml version="1.0" encoding="utf-8"?>
<!-- Generator: Adobe Illustrator 20.0.0, SVG Export Plug-In . SVG Version: 6.00 Build 0)  -->
<svg version="1.1" xmlns="http://www.w3.org/2000/svg" xmlns:xlink="http://www.w3.org/1999/xlink" x="0px" y="0px"
	 viewBox="0 0 500 500" style="enable-background:new 0 0 500 500;" xml:space="preserve">
<style type="text/css">
	.st0{fill:#F7C31E;}
	.st1{fill:#DB9B1E;}
	.st2{fill:#FFFFFF;}
	.st3{fill:none;stroke:#FFFFFF;stroke-width:7;}
	.st4{fill:#FFACE4;}
	.st5{display:none;}
	.st6{display:inline;}
	.st7{display:inline;fill:#FFFFFF;}
	.st8{fill:#DB88C8;}
	.st9{display:inline;fill:#DB88C8;}
	.st10{fill:#32C8FC;}
	.st11{stroke:#000000;stroke-width:4;}
	.st12{fill:#3CA3D6;}
</style>
<g id="GAME">
	<g id="レイヤー_2">
		<rect x="-3.5" y="-4.2" class="st0" width="506.2" height="506.2"/>
	</g>
	<g id="レイヤー_4">
		<polygon class="st1" points="502.7,502 305.6,500 155.9,340.5 192.8,278.4 337.3,132.8 340.6,129.5 373.1,148.2 500,238.5 		"/>
	</g>
	<g id="レイヤー_3">
		<rect x="112.5" y="168.3" class="st2" width="274.1" height="90.3"/>
	</g>
	<g id="レイヤー_1">
		<g>
			<path d="M94.7,244.7c0.7-18.2,1.5-36.4,1.9-54.6c0.2-9.6,4.2-17.7,9.3-25.2c14.1-21.1,33.9-32.6,59.4-34c16-0.8,30.6,3.4,44,12
				c1.1,0.7,2.5,1.2,3.8,1.2c24.3,0.1,48.5,0.1,72.8,0c1.3,0,2.8-0.5,3.8-1.2c41-26.8,96.4-7.6,111.7,39c1,3.1,0.9,6.5,1,9.8
				c0.7,18.1,1.3,36.3,2,54.4c0.7,17.6,1.3,35.2,2,52.8c0.8,22.2-16.2,42.2-38.3,45.1c-13.9,1.9-26.2-1.9-36.6-11.3
				c-0.7-0.6-1.3-1.5-1.8-2.3c-8.8-16.4-17.6-32.9-26.4-49.4c-0.7-1.3-1.4-1.7-2.9-1.7c-34,0-68,0-102,0c-1.4,0-2.1,0.5-2.7,1.7
				c-8.7,16.4-17.4,32.7-26.2,49c-0.7,1.3-1.6,2.5-2.7,3.4c-13.6,11.4-28.9,14.4-45.4,8.2c-16.4-6.2-25.9-18.6-28.3-36
				c-0.8-5.9-0.2-12.1,0-18.1c0.3-10.8,0.8-21.6,1.2-32.5c0.1-3.4,0-6.9,0-10.4C94.4,244.7,94.5,244.7,94.7,244.7z M167.5,215
				c1,0,1.7,0,2.4,0c4.3,0,8.6,0.1,13,0c4.7-0.1,8-3.3,8.1-7.8c0-2.6,0.1-5.2,0-7.8c-0.1-4-3-7-7-7.4c-1.3-0.1-2.7-0.1-4-0.1
				c-4.1,0-8.2,0-12.5,0c0-0.9,0-1.6,0-2.4c0-4.3,0.1-8.6,0-13c-0.1-4.9-3-7.9-7.9-8.2c-2.5-0.1-4.9-0.1-7.4,0
				c-4.9,0.2-7.8,3.4-7.8,8.2c0,3,0,6,0,9c0,2,0,4.1,0,6.3c-1,0-1.7,0-2.4,0c-4.4,0-8.8-0.1-13.2,0c-4.8,0.1-7.9,3.3-8,8.1
				c0,2.5,0,4.9,0,7.4c0.1,4,2.9,7.1,6.9,7.5c1.8,0.2,3.7,0.1,5.6,0.1c3.6,0,7.3,0,11.1,0c0,5.3,0,10.4,0,15.5
				c0,4.4,2.8,7.5,7.1,7.8c2.3,0.2,4.6,0.2,7,0.1c6.1,0,9-3,9.1-9.1C167.5,224.7,167.5,220,167.5,215z M314.9,217.6
				c1.5,0,3.1,0,4.6,0c4.3,0,7.6-3.2,7.7-7.5c0.1-2.7,0.1-5.3,0-8c-0.1-4.4-3.4-7.6-7.8-7.6c-2.9,0-5.9,0-8.8,0
				c-4.2,0.1-7.4,3-7.7,7.1c-0.2,2.9-0.2,5.9,0,8.8c0.3,4.3,3.5,7.2,7.8,7.2C312.1,217.6,313.5,217.6,314.9,217.6z M366.2,217.6
				c1.5,0,2.9,0,4.4,0c4.2,0,7.5-3.1,7.7-7.3c0.1-2.8,0.1-5.6,0-8.4c-0.2-4.2-3.4-7.3-7.7-7.4c-3,0-6,0-9,0
				c-4.2,0.1-7.5,3.2-7.7,7.4c-0.1,2.8-0.1,5.6,0,8.4c0.2,4.2,3.5,7.3,7.7,7.3C363.1,217.6,364.7,217.6,366.2,217.6z M329.1,231.6
				c0,1.5,0,3.1,0,4.6c0.1,3.9,2.5,7,6.4,7.4c3.2,0.4,6.5,0.4,9.7,0.1c4.4-0.4,6.9-3.5,6.9-8c0-2.9,0-5.7,0-8.6
				c-0.1-4-2.8-7.2-6.8-7.5c-3.2-0.2-6.4-0.2-9.5,0c-3.9,0.3-6.6,3.5-6.7,7.4C329,228.5,329.1,230,329.1,231.6z M329.1,180.5
				c0,1.4,0,2.8,0,4.2c0,4.6,3,7.8,7.6,8c2.6,0.1,5.2,0.1,7.8,0c4.6-0.2,7.6-3.4,7.6-8c0-3,0.1-6,0-9c-0.1-3.9-2.9-7-6.8-7.3
				c-3.1-0.2-6.2-0.2-9.3,0c-4,0.3-6.8,3.4-6.8,7.4C329,177.5,329.1,179,329.1,180.5z M272.1,238c-3.6,0-7.2,0-10.7,0
				c-2.8,0-4.3,1.6-4.4,4.3c0,1.5,0,3.1,0,4.6c0.1,2.4,1.5,4.1,3.9,4.1c7.4,0.1,14.7,0.1,22.1,0c2.5,0,3.9-1.6,3.9-4.1
				c0-1.5,0-2.9,0-4.4c0-3.1-1.4-4.5-4.5-4.5C279,238,275.5,238,272.1,238z M224.5,238c-3.5,0-7,0-10.6,0c-2.9,0-4.4,1.5-4.5,4.4
				c0,1.5,0,2.9,0,4.4c0.1,2.6,1.5,4.2,4.1,4.2c7.3,0.1,14.6,0.1,21.9,0c2.4,0,3.9-1.5,4-4c0.1-1.5,0.1-2.9,0-4.4
				c-0.1-3.2-1.5-4.6-4.7-4.6C231.4,238,227.9,238,224.5,238z"/>
			<path d="M367.4,85.7c0-9.3,0-18.4,0-27.5c-56.8,0-113.4,0-170.3,0c0,1,0,1.9,0,2.8c-0.1,4.4-3.6,8-8,8c-11.8,0.1-23.5,0-35.3,0
				c-3.8,0-7-2.7-7.8-6.5c-0.2-1.1-0.3-2.2-0.3-3.4c0-6.3,0-12.6,0-19c0-6.9,3.2-10,10-10c10.4,0,20.9,0,31.3,0
				c7.2,0,9.9,2.7,10.1,10c0,0.3,0.1,0.6,0.1,1.2c0.9,0,1.7,0,2.6,0c58.4,0,116.8,0,175.2-0.1c5.9,0,9.4,4.4,9.3,9.3
				c-0.2,14.2-0.1,28.3-0.1,42.5c0,6.1-3.4,9.4-9.6,9.4c-37,0-74,0-110.9,0c-0.8,0-1.7,0-2.6,0c0,6.5,0,12.8,0,19.2
				c0.8,0,1.5,0,2.3,0c6.8,0,13.6,0,20.3,0c5.1,0,9,3.9,9.2,8.9c0.2,4.7-3.5,8.7-8.4,9.2c-0.7,0.1-1.3,0.1-2,0.1
				c-20,0-39.9,0-59.9,0c-4,0-7.3-1.2-9.3-5c-3.1-6,1.1-13.1,7.9-13.2c6.8-0.1,13.7,0,20.5,0c0.7,0,1.5,0,2.5,0c0-0.8,0-1.5,0-2.2
				c0-7.9,0.3-15.8-0.1-23.7c-0.3-6.5,3.9-10.2,10.1-10.2c36.8,0.2,73.7,0.1,110.5,0.1C365.5,85.7,366.3,85.7,367.4,85.7z"/>
		</g>
		<g>
			<g>
				<path d="M154.8,421.4v16.5c0,2.2-0.2,3.9-0.6,5.2c-0.4,1.3-1.2,2.5-2.4,3.5c-1.2,1.1-2.6,2.1-4.4,3c-5.2,2.8-10.2,4.9-15,6.2
					s-10,1.9-15.7,1.9c-6.6,0-12.6-1-18-3c-5.4-2-10.1-5-13.9-8.8c-3.8-3.9-6.8-8.6-8.8-14.1s-3.1-11.7-3.1-18.5
					c0-6.7,1-12.8,3-18.3c2-5.5,4.9-10.3,8.8-14.1s8.6-6.8,14.1-8.9c5.5-2.1,11.8-3.1,18.9-3.1c5.8,0,10.9,0.8,15.4,2.3
					c4.5,1.5,8.1,3.5,10.8,5.8c2.8,2.3,4.9,4.8,6.3,7.4c1.4,2.6,2.1,4.9,2.1,7c0,2.2-0.8,4.1-2.4,5.6c-1.6,1.5-3.6,2.3-5.8,2.3
					c-1.3,0-2.5-0.3-3.6-0.9c-1.2-0.6-2.1-1.4-2.9-2.5c-2.1-3.4-4-5.9-5.4-7.6c-1.5-1.7-3.5-3.2-6-4.3s-5.7-1.8-9.6-1.8
					c-4,0-7.6,0.7-10.8,2.1c-3.2,1.4-5.9,3.4-8.1,6c-2.2,2.6-4,5.9-5.2,9.7c-1.2,3.8-1.8,8.1-1.8,12.7c0,10.1,2.3,17.8,6.9,23.3
					c4.6,5.4,11.1,8.1,19.4,8.1c4,0,7.8-0.5,11.3-1.6c3.5-1.1,7.1-2.6,10.8-4.5v-13.9h-13.5c-3.2,0-5.7-0.5-7.4-1.5
					c-1.7-1-2.5-2.6-2.5-5c0-1.9,0.7-3.5,2.1-4.7c1.4-1.2,3.3-1.9,5.7-1.9H143c2.4,0,4.5,0.2,6.2,0.6c1.7,0.4,3,1.4,4.1,2.9
					C154.2,416.3,154.8,418.5,154.8,421.4z"/>
				<path d="M226.3,446.6l-4.1-10.8h-34.9l-4.1,11c-1.6,4.3-3,7.2-4.1,8.7c-1.1,1.5-3,2.3-5.6,2.3c-2.2,0-4.1-0.8-5.8-2.4
					c-1.7-1.6-2.5-3.4-2.5-5.4c0-1.2,0.2-2.4,0.6-3.6c0.4-1.2,1-3,1.9-5.2l22-55.8c0.6-1.6,1.4-3.5,2.3-5.8c0.9-2.2,1.8-4.1,2.8-5.6
					c1-1.5,2.3-2.7,3.9-3.6c1.6-0.9,3.6-1.4,6-1.4c2.4,0,4.4,0.5,6.1,1.4c1.6,0.9,2.9,2.1,3.9,3.5c1,1.4,1.8,3,2.5,4.7
					c0.7,1.7,1.6,3.9,2.6,6.7l22.4,55.4c1.8,4.2,2.6,7.3,2.6,9.2c0,2-0.8,3.8-2.5,5.5c-1.7,1.7-3.7,2.5-6,2.5
					c-1.4,0-2.5-0.2-3.5-0.7c-1-0.5-1.8-1.2-2.5-2c-0.7-0.8-1.4-2.1-2.1-3.9C227.5,449.5,226.9,448,226.3,446.6z M191.9,422.8h25.7
					l-12.9-35.4L191.9,422.8z"/>
				<path d="M286.7,443.4l-13.8-54.7V448c0,3.3-0.7,5.7-2.2,7.4s-3.4,2.5-5.8,2.5c-2.3,0-4.3-0.8-5.7-2.4c-1.5-1.6-2.2-4.1-2.2-7.4
					v-68c0-3.8,1-6.3,2.9-7.6c2-1.3,4.6-2,7.9-2h5.4c3.2,0,5.6,0.3,7.1,0.9s2.5,1.6,3.3,3.2s1.5,4,2.4,7.4l12.5,47.1l12.5-47.1
					c0.9-3.4,1.7-5.9,2.4-7.4s1.8-2.6,3.3-3.2s3.8-0.9,7.1-0.9h5.4c3.3,0,6,0.7,7.9,2c2,1.3,2.9,3.8,2.9,7.6v68
					c0,3.3-0.7,5.7-2.2,7.4s-3.4,2.5-5.9,2.5c-2.3,0-4.2-0.8-5.7-2.5c-1.5-1.6-2.2-4.1-2.2-7.4v-59.3L310,443.4
					c-0.9,3.6-1.6,6.2-2.2,7.8c-0.6,1.7-1.6,3.2-3.1,4.5s-3.6,2.1-6.3,2.1c-2,0-3.8-0.4-5.2-1.3s-2.5-2-3.3-3.4
					c-0.8-1.4-1.4-2.9-1.8-4.5C287.6,446.9,287.1,445.2,286.7,443.4z"/>
				<path d="M414.2,383.9H375V405h36.1c2.7,0,4.6,0.6,5.9,1.8c1.3,1.2,2,2.8,2,4.7c0,2-0.6,3.5-1.9,4.8s-3.3,1.8-6,1.8H375v24.4
					h40.5c2.7,0,4.8,0.6,6.2,1.9c1.4,1.3,2.1,3,2.1,5.1c0,2-0.7,3.7-2.1,5c-1.4,1.3-3.4,1.9-6.2,1.9h-47.3c-3.8,0-6.5-0.8-8.2-2.5
					c-1.7-1.7-2.5-4.4-2.5-8.1v-64.6c0-2.5,0.4-4.5,1.1-6.1c0.7-1.6,1.9-2.7,3.5-3.5c1.6-0.7,3.6-1.1,6.1-1.1h45.9
					c2.8,0,4.8,0.6,6.2,1.8s2,2.8,2,4.8c0,2-0.7,3.7-2,4.9S417,383.9,414.2,383.9z"/>
			</g>
			<g>
				<path class="st3" d="M154.8,421.4v16.5c0,2.2-0.2,3.9-0.6,5.2c-0.4,1.3-1.2,2.5-2.4,3.5c-1.2,1.1-2.6,2.1-4.4,3
					c-5.2,2.8-10.2,4.9-15,6.2s-10,1.9-15.7,1.9c-6.6,0-12.6-1-18-3c-5.4-2-10.1-5-13.9-8.8c-3.8-3.9-6.8-8.6-8.8-14.1
					s-3.1-11.7-3.1-18.5c0-6.7,1-12.8,3-18.3c2-5.5,4.9-10.3,8.8-14.1s8.6-6.8,14.1-8.9c5.5-2.1,11.8-3.1,18.9-3.1
					c5.8,0,10.9,0.8,15.4,2.3c4.5,1.5,8.1,3.5,10.8,5.8c2.8,2.3,4.9,4.8,6.3,7.4c1.4,2.6,2.1,4.9,2.1,7c0,2.2-0.8,4.1-2.4,5.6
					c-1.6,1.5-3.6,2.3-5.8,2.3c-1.3,0-2.5-0.3-3.6-0.9c-1.2-0.6-2.1-1.4-2.9-2.5c-2.1-3.4-4-5.9-5.4-7.6c-1.5-1.7-3.5-3.2-6-4.3
					s-5.7-1.8-9.6-1.8c-4,0-7.6,0.7-10.8,2.1c-3.2,1.4-5.9,3.4-8.1,6c-2.2,2.6-4,5.9-5.2,9.7c-1.2,3.8-1.8,8.1-1.8,12.7
					c0,10.1,2.3,17.8,6.9,23.3c4.6,5.4,11.1,8.1,19.4,8.1c4,0,7.8-0.5,11.3-1.6c3.5-1.1,7.1-2.6,10.8-4.5v-13.9h-13.5
					c-3.2,0-5.7-0.5-7.4-1.5c-1.7-1-2.5-2.6-2.5-5c0-1.9,0.7-3.5,2.1-4.7c1.4-1.2,3.3-1.9,5.7-1.9H143c2.4,0,4.5,0.2,6.2,0.6
					c1.7,0.4,3,1.4,4.1,2.9C154.2,416.3,154.8,418.5,154.8,421.4z"/>
				<path class="st3" d="M226.3,446.6l-4.1-10.8h-34.9l-4.1,11c-1.6,4.3-3,7.2-4.1,8.7c-1.1,1.5-3,2.3-5.6,2.3
					c-2.2,0-4.1-0.8-5.8-2.4c-1.7-1.6-2.5-3.4-2.5-5.4c0-1.2,0.2-2.4,0.6-3.6c0.4-1.2,1-3,1.9-5.2l22-55.8c0.6-1.6,1.4-3.5,2.3-5.8
					c0.9-2.2,1.8-4.1,2.8-5.6c1-1.5,2.3-2.7,3.9-3.6c1.6-0.9,3.6-1.4,6-1.4c2.4,0,4.4,0.5,6.1,1.4c1.6,0.9,2.9,2.1,3.9,3.5
					c1,1.4,1.8,3,2.5,4.7c0.7,1.7,1.6,3.9,2.6,6.7l22.4,55.4c1.8,4.2,2.6,7.3,2.6,9.2c0,2-0.8,3.8-2.5,5.5c-1.7,1.7-3.7,2.5-6,2.5
					c-1.4,0-2.5-0.2-3.5-0.7c-1-0.5-1.8-1.2-2.5-2c-0.7-0.8-1.4-2.1-2.1-3.9C227.5,449.5,226.9,448,226.3,446.6z M191.9,422.8h25.7
					l-12.9-35.4L191.9,422.8z"/>
				<path class="st3" d="M286.7,443.4l-13.8-54.7V448c0,3.3-0.7,5.7-2.2,7.4s-3.4,2.5-5.8,2.5c-2.3,0-4.3-0.8-5.7-2.4
					c-1.5-1.6-2.2-4.1-2.2-7.4v-68c0-3.8,1-6.3,2.9-7.6c2-1.3,4.6-2,7.9-2h5.4c3.2,0,5.6,0.3,7.1,0.9s2.5,1.6,3.3,3.2s1.5,4,2.4,7.4
					l12.5,47.1l12.5-47.1c0.9-3.4,1.7-5.9,2.4-7.4s1.8-2.6,3.3-3.2s3.8-0.9,7.1-0.9h5.4c3.3,0,6,0.7,7.9,2c2,1.3,2.9,3.8,2.9,7.6v68
					c0,3.3-0.7,5.7-2.2,7.4s-3.4,2.5-5.9,2.5c-2.3,0-4.2-0.8-5.7-2.5c-1.5-1.6-2.2-4.1-2.2-7.4v-59.3L310,443.4
					c-0.9,3.6-1.6,6.2-2.2,7.8c-0.6,1.7-1.6,3.2-3.1,4.5s-3.6,2.1-6.3,2.1c-2,0-3.8-0.4-5.2-1.3s-2.5-2-3.3-3.4
					c-0.8-1.4-1.4-2.9-1.8-4.5C287.6,446.9,287.1,445.2,286.7,443.4z"/>
				<path class="st3" d="M414.2,383.9H375V405h36.1c2.7,0,4.6,0.6,5.9,1.8c1.3,1.2,2,2.8,2,4.7c0,2-0.6,3.5-1.9,4.8s-3.3,1.8-6,1.8
					H375v24.4h40.5c2.7,0,4.8,0.6,6.2,1.9c1.4,1.3,2.1,3,2.1,5.1c0,2-0.7,3.7-2.1,5c-1.4,1.3-3.4,1.9-6.2,1.9h-47.3
					c-3.8,0-6.5-0.8-8.2-2.5c-1.7-1.7-2.5-4.4-2.5-8.1v-64.6c0-2.5,0.4-4.5,1.1-6.1c0.7-1.6,1.9-2.7,3.5-3.5
					c1.6-0.7,3.6-1.1,6.1-1.1h45.9c2.8,0,4.8,0.6,6.2,1.8s2,2.8,2,4.8c0,2-0.7,3.7-2,4.9S417,383.9,414.2,383.9z"/>
			</g>
			<g>
				<path d="M154.8,421.4v16.5c0,2.2-0.2,3.9-0.6,5.2c-0.4,1.3-1.2,2.5-2.4,3.5c-1.2,1.1-2.6,2.1-4.4,3c-5.2,2.8-10.2,4.9-15,6.2
					s-10,1.9-15.7,1.9c-6.6,0-12.6-1-18-3c-5.4-2-10.1-5-13.9-8.8c-3.8-3.9-6.8-8.6-8.8-14.1s-3.1-11.7-3.1-18.5
					c0-6.7,1-12.8,3-18.3c2-5.5,4.9-10.3,8.8-14.1s8.6-6.8,14.1-8.9c5.5-2.1,11.8-3.1,18.9-3.1c5.8,0,10.9,0.8,15.4,2.3
					c4.5,1.5,8.1,3.5,10.8,5.8c2.8,2.3,4.9,4.8,6.3,7.4c1.4,2.6,2.1,4.9,2.1,7c0,2.2-0.8,4.1-2.4,5.6c-1.6,1.5-3.6,2.3-5.8,2.3
					c-1.3,0-2.5-0.3-3.6-0.9c-1.2-0.6-2.1-1.4-2.9-2.5c-2.1-3.4-4-5.9-5.4-7.6c-1.5-1.7-3.5-3.2-6-4.3s-5.7-1.8-9.6-1.8
					c-4,0-7.6,0.7-10.8,2.1c-3.2,1.4-5.9,3.4-8.1,6c-2.2,2.6-4,5.9-5.2,9.7c-1.2,3.8-1.8,8.1-1.8,12.7c0,10.1,2.3,17.8,6.9,23.3
					c4.6,5.4,11.1,8.1,19.4,8.1c4,0,7.8-0.5,11.3-1.6c3.5-1.1,7.1-2.6,10.8-4.5v-13.9h-13.5c-3.2,0-5.7-0.5-7.4-1.5
					c-1.7-1-2.5-2.6-2.5-5c0-1.9,0.7-3.5,2.1-4.7c1.4-1.2,3.3-1.9,5.7-1.9H143c2.4,0,4.5,0.2,6.2,0.6c1.7,0.4,3,1.4,4.1,2.9
					C154.2,416.3,154.8,418.5,154.8,421.4z"/>
				<path d="M226.3,446.6l-4.1-10.8h-34.9l-4.1,11c-1.6,4.3-3,7.2-4.1,8.7c-1.1,1.5-3,2.3-5.6,2.3c-2.2,0-4.1-0.8-5.8-2.4
					c-1.7-1.6-2.5-3.4-2.5-5.4c0-1.2,0.2-2.4,0.6-3.6c0.4-1.2,1-3,1.9-5.2l22-55.8c0.6-1.6,1.4-3.5,2.3-5.8c0.9-2.2,1.8-4.1,2.8-5.6
					c1-1.5,2.3-2.7,3.9-3.6c1.6-0.9,3.6-1.4,6-1.4c2.4,0,4.4,0.5,6.1,1.4c1.6,0.9,2.9,2.1,3.9,3.5c1,1.4,1.8,3,2.5,4.7
					c0.7,1.7,1.6,3.9,2.6,6.7l22.4,55.4c1.8,4.2,2.6,7.3,2.6,9.2c0,2-0.8,3.8-2.5,5.5c-1.7,1.7-3.7,2.5-6,2.5
					c-1.4,0-2.5-0.2-3.5-0.7c-1-0.5-1.8-1.2-2.5-2c-0.7-0.8-1.4-2.1-2.1-3.9C227.5,449.5,226.9,448,226.3,446.6z M191.9,422.8h25.7
					l-12.9-35.4L191.9,422.8z"/>
				<path d="M286.7,443.4l-13.8-54.7V448c0,3.3-0.7,5.7-2.2,7.4s-3.4,2.5-5.8,2.5c-2.3,0-4.3-0.8-5.7-2.4c-1.5-1.6-2.2-4.1-2.2-7.4
					v-68c0-3.8,1-6.3,2.9-7.6c2-1.3,4.6-2,7.9-2h5.4c3.2,0,5.6,0.3,7.1,0.9s2.5,1.6,3.3,3.2s1.5,4,2.4,7.4l12.5,47.1l12.5-47.1
					c0.9-3.4,1.7-5.9,2.4-7.4s1.8-2.6,3.3-3.2s3.8-0.9,7.1-0.9h5.4c3.3,0,6,0.7,7.9,2c2,1.3,2.9,3.8,2.9,7.6v68
					c0,3.3-0.7,5.7-2.2,7.4s-3.4,2.5-5.9,2.5c-2.3,0-4.2-0.8-5.7-2.5c-1.5-1.6-2.2-4.1-2.2-7.4v-59.3L310,443.4
					c-0.9,3.6-1.6,6.2-2.2,7.8c-0.6,1.7-1.6,3.2-3.1,4.5s-3.6,2.1-6.3,2.1c-2,0-3.8-0.4-5.2-1.3s-2.5-2-3.3-3.4
					c-0.8-1.4-1.4-2.9-1.8-4.5C287.6,446.9,287.1,445.2,286.7,443.4z"/>
				<path d="M414.2,383.9H375V405h36.1c2.7,0,4.6,0.6,5.9,1.8c1.3,1.2,2,2.8,2,4.7c0,2-0.6,3.5-1.9,4.8s-3.3,1.8-6,1.8H375v24.4
					h40.5c2.7,0,4.8,0.6,6.2,1.9c1.4,1.3,2.1,3,2.1,5.1c0,2-0.7,3.7-2.1,5c-1.4,1.3-3.4,1.9-6.2,1.9h-47.3c-3.8,0-6.5-0.8-8.2-2.5
					c-1.7-1.7-2.5-4.4-2.5-8.1v-64.6c0-2.5,0.4-4.5,1.1-6.1c0.7-1.6,1.9-2.7,3.5-3.5c1.6-0.7,3.6-1.1,6.1-1.1h45.9
					c2.8,0,4.8,0.6,6.2,1.8s2,2.8,2,4.8c0,2-0.7,3.7-2,4.9S417,383.9,414.2,383.9z"/>
			</g>
		</g>
	</g>
</g>
<g id="illust">
	<g id="レイヤー_7">
	</g>
</g>
<g id="IT">
	<g id="レイヤー_9" class="st5">
		<g id="レイヤー_10" class="st6">
		</g>
	</g>
	<g id="レイヤー_10のコピー">
	</g>
</g>
</svg>
